<svg width="1363" height="163" viewBox="0 0 1363 163" fill="none" xmlns="http://www.w3.org/2000/svg">
<path d="M0 15C0 6.71573 6.71573 0 15 0H37V163H15C6.71573 163 0 156.284 0 148V15Z" fill="#424242"/>
<rect width="1097" height="163" transform="translate(37)" fill="#F0F0F0"/>
<path d="M101.906 53.9219L94.3945 51.2383V48.0859L104.602 52.375V54.6367L101.906 53.9219ZM94.3945 56.1719L101.918 53.4297L104.602 52.7852V55.0352L94.3945 59.3242V56.1719ZM114.504 43.9375H117.48L121.863 56.4648L126.246 43.9375H129.223L123.059 61H120.668L114.504 43.9375ZM112.898 43.9375H115.863L116.402 56.1484V61H112.898V43.9375ZM127.863 43.9375H130.84V61H127.324V56.1484L127.863 43.9375ZM139.547 61.2344C138.562 61.2344 137.68 61.0781 136.898 60.7656C136.117 60.4453 135.453 60.0039 134.906 59.4414C134.367 58.8789 133.953 58.2266 133.664 57.4844C133.375 56.7344 133.23 55.9375 133.23 55.0938V54.625C133.23 53.6641 133.367 52.7852 133.641 51.9883C133.914 51.1914 134.305 50.5 134.812 49.9141C135.328 49.3281 135.953 48.8789 136.688 48.5664C137.422 48.2461 138.25 48.0859 139.172 48.0859C140.07 48.0859 140.867 48.2344 141.562 48.5312C142.258 48.8281 142.84 49.25 143.309 49.7969C143.785 50.3438 144.145 51 144.387 51.7656C144.629 52.5234 144.75 53.3672 144.75 54.2969V55.7031H134.672V53.4531H141.434V53.1953C141.434 52.7266 141.348 52.3086 141.176 51.9414C141.012 51.5664 140.762 51.2695 140.426 51.0508C140.09 50.832 139.66 50.7227 139.137 50.7227C138.691 50.7227 138.309 50.8203 137.988 51.0156C137.668 51.2109 137.406 51.4844 137.203 51.8359C137.008 52.1875 136.859 52.6016 136.758 53.0781C136.664 53.5469 136.617 54.0625 136.617 54.625V55.0938C136.617 55.6016 136.688 56.0703 136.828 56.5C136.977 56.9297 137.184 57.3008 137.449 57.6133C137.723 57.9258 138.051 58.168 138.434 58.3398C138.824 58.5117 139.266 58.5977 139.758 58.5977C140.367 58.5977 140.934 58.4805 141.457 58.2461C141.988 58.0039 142.445 57.6406 142.828 57.1562L144.469 58.9375C144.203 59.3203 143.84 59.6875 143.379 60.0391C142.926 60.3906 142.379 60.6797 141.738 60.9062C141.098 61.125 140.367 61.2344 139.547 61.2344ZM154.16 58.2344V43H157.559V61H154.5L154.16 58.2344ZM146.145 54.8125V54.5664C146.145 53.5977 146.254 52.7188 146.473 51.9297C146.691 51.1328 147.012 50.4492 147.434 49.8789C147.855 49.3086 148.375 48.8672 148.992 48.5547C149.609 48.2422 150.312 48.0859 151.102 48.0859C151.844 48.0859 152.492 48.2422 153.047 48.5547C153.609 48.8672 154.086 49.3125 154.477 49.8906C154.875 50.4609 155.195 51.1367 155.438 51.918C155.68 52.6914 155.855 53.5391 155.965 54.4609V55C155.855 55.8828 155.68 56.7031 155.438 57.4609C155.195 58.2188 154.875 58.8828 154.477 59.4531C154.086 60.0156 153.609 60.4531 153.047 60.7656C152.484 61.0781 151.828 61.2344 151.078 61.2344C150.289 61.2344 149.586 61.0742 148.969 60.7539C148.359 60.4336 147.844 59.9844 147.422 59.4062C147.008 58.8281 146.691 58.1484 146.473 57.3672C146.254 56.5859 146.145 55.7344 146.145 54.8125ZM149.52 54.5664V54.8125C149.52 55.3359 149.559 55.8242 149.637 56.2773C149.723 56.7305 149.859 57.1328 150.047 57.4844C150.242 57.8281 150.492 58.0977 150.797 58.293C151.109 58.4805 151.488 58.5742 151.934 58.5742C152.512 58.5742 152.988 58.4453 153.363 58.1875C153.738 57.9219 154.023 57.5586 154.219 57.0977C154.422 56.6367 154.539 56.1055 154.57 55.5039V53.9688C154.547 53.4766 154.477 53.0352 154.359 52.6445C154.25 52.2461 154.086 51.9062 153.867 51.625C153.656 51.3438 153.391 51.125 153.07 50.9688C152.758 50.8125 152.387 50.7344 151.957 50.7344C151.52 50.7344 151.145 50.8359 150.832 51.0391C150.52 51.2344 150.266 51.5039 150.07 51.8477C149.883 52.1914 149.742 52.5977 149.648 53.0664C149.562 53.5273 149.52 54.0273 149.52 54.5664ZM166.559 57.4375L170.578 43.9375H174.492L168.551 61H165.973L166.559 57.4375ZM162.855 43.9375L166.863 57.4375L167.473 61H164.871L158.965 43.9375H162.855ZM179.438 48.3203V61H176.051V48.3203H179.438ZM175.84 45.0156C175.84 44.5234 176.012 44.1172 176.355 43.7969C176.699 43.4766 177.16 43.3164 177.738 43.3164C178.309 43.3164 178.766 43.4766 179.109 43.7969C179.461 44.1172 179.637 44.5234 179.637 45.0156C179.637 45.5078 179.461 45.9141 179.109 46.2344C178.766 46.5547 178.309 46.7148 177.738 46.7148C177.16 46.7148 176.699 46.5547 176.355 46.2344C176.012 45.9141 175.84 45.5078 175.84 45.0156ZM189.082 57.4961C189.082 57.2539 189.012 57.0352 188.871 56.8398C188.73 56.6445 188.469 56.4648 188.086 56.3008C187.711 56.1289 187.168 55.9727 186.457 55.832C185.816 55.6914 185.219 55.5156 184.664 55.3047C184.117 55.0859 183.641 54.8242 183.234 54.5195C182.836 54.2148 182.523 53.8555 182.297 53.4414C182.07 53.0195 181.957 52.5391 181.957 52C181.957 51.4688 182.07 50.9688 182.297 50.5C182.531 50.0312 182.863 49.6172 183.293 49.2578C183.73 48.8906 184.262 48.6055 184.887 48.4023C185.52 48.1914 186.23 48.0859 187.02 48.0859C188.121 48.0859 189.066 48.2617 189.855 48.6133C190.652 48.9648 191.262 49.4492 191.684 50.0664C192.113 50.6758 192.328 51.3711 192.328 52.1523H188.953C188.953 51.8242 188.883 51.5312 188.742 51.2734C188.609 51.0078 188.398 50.8008 188.109 50.6523C187.828 50.4961 187.461 50.418 187.008 50.418C186.633 50.418 186.309 50.4844 186.035 50.6172C185.762 50.7422 185.551 50.9141 185.402 51.1328C185.262 51.3438 185.191 51.5781 185.191 51.8359C185.191 52.0312 185.23 52.207 185.309 52.3633C185.395 52.5117 185.531 52.6484 185.719 52.7734C185.906 52.8984 186.148 53.0156 186.445 53.125C186.75 53.2266 187.125 53.3203 187.57 53.4062C188.484 53.5938 189.301 53.8398 190.02 54.1445C190.738 54.4414 191.309 54.8477 191.73 55.3633C192.152 55.8711 192.363 56.5391 192.363 57.3672C192.363 57.9297 192.238 58.4453 191.988 58.9141C191.738 59.3828 191.379 59.793 190.91 60.1445C190.441 60.4883 189.879 60.7578 189.223 60.9531C188.574 61.1406 187.844 61.2344 187.031 61.2344C185.852 61.2344 184.852 61.0234 184.031 60.6016C183.219 60.1797 182.602 59.6445 182.18 58.9961C181.766 58.3398 181.559 57.668 181.559 56.9805H184.758C184.773 57.4414 184.891 57.8125 185.109 58.0938C185.336 58.375 185.621 58.5781 185.965 58.7031C186.316 58.8281 186.695 58.8906 187.102 58.8906C187.539 58.8906 187.902 58.832 188.191 58.7148C188.48 58.5898 188.699 58.4258 188.848 58.2227C189.004 58.0117 189.082 57.7695 189.082 57.4961ZM198.117 48.3203V61H194.73V48.3203H198.117ZM194.52 45.0156C194.52 44.5234 194.691 44.1172 195.035 43.7969C195.379 43.4766 195.84 43.3164 196.418 43.3164C196.988 43.3164 197.445 43.4766 197.789 43.7969C198.141 44.1172 198.316 44.5234 198.316 45.0156C198.316 45.5078 198.141 45.9141 197.789 46.2344C197.445 46.5547 196.988 46.7148 196.418 46.7148C195.84 46.7148 195.379 46.5547 195.035 46.2344C194.691 45.9141 194.52 45.5078 194.52 45.0156ZM200.367 54.7891V54.543C200.367 53.6133 200.5 52.7578 200.766 51.9766C201.031 51.1875 201.418 50.5039 201.926 49.9258C202.434 49.3477 203.059 48.8984 203.801 48.5781C204.543 48.25 205.395 48.0859 206.355 48.0859C207.316 48.0859 208.172 48.25 208.922 48.5781C209.672 48.8984 210.301 49.3477 210.809 49.9258C211.324 50.5039 211.715 51.1875 211.98 51.9766C212.246 52.7578 212.379 53.6133 212.379 54.543V54.7891C212.379 55.7109 212.246 56.5664 211.98 57.3555C211.715 58.1367 211.324 58.8203 210.809 59.4062C210.301 59.9844 209.676 60.4336 208.934 60.7539C208.191 61.0742 207.34 61.2344 206.379 61.2344C205.418 61.2344 204.562 61.0742 203.812 60.7539C203.07 60.4336 202.441 59.9844 201.926 59.4062C201.418 58.8203 201.031 58.1367 200.766 57.3555C200.5 56.5664 200.367 55.7109 200.367 54.7891ZM203.742 54.543V54.7891C203.742 55.3203 203.789 55.8164 203.883 56.2773C203.977 56.7383 204.125 57.1445 204.328 57.4961C204.539 57.8398 204.812 58.1094 205.148 58.3047C205.484 58.5 205.895 58.5977 206.379 58.5977C206.848 58.5977 207.25 58.5 207.586 58.3047C207.922 58.1094 208.191 57.8398 208.395 57.4961C208.598 57.1445 208.746 56.7383 208.84 56.2773C208.941 55.8164 208.992 55.3203 208.992 54.7891V54.543C208.992 54.0273 208.941 53.543 208.84 53.0898C208.746 52.6289 208.594 52.2227 208.383 51.8711C208.18 51.5117 207.91 51.2305 207.574 51.0273C207.238 50.8242 206.832 50.7227 206.355 50.7227C205.879 50.7227 205.473 50.8242 205.137 51.0273C204.809 51.2305 204.539 51.5117 204.328 51.8711C204.125 52.2227 203.977 52.6289 203.883 53.0898C203.789 53.543 203.742 54.0273 203.742 54.543ZM217.758 51.0273V61H214.383V48.3203H217.547L217.758 51.0273ZM217.266 54.2148H216.352C216.352 53.2773 216.473 52.4336 216.715 51.6836C216.957 50.9258 217.297 50.2812 217.734 49.75C218.172 49.2109 218.691 48.8008 219.293 48.5195C219.902 48.2305 220.582 48.0859 221.332 48.0859C221.926 48.0859 222.469 48.1719 222.961 48.3438C223.453 48.5156 223.875 48.7891 224.227 49.1641C224.586 49.5391 224.859 50.0352 225.047 50.6523C225.242 51.2695 225.34 52.0234 225.34 52.9141V61H221.941V52.9023C221.941 52.3398 221.863 51.9023 221.707 51.5898C221.551 51.2773 221.32 51.0586 221.016 50.9336C220.719 50.8008 220.352 50.7344 219.914 50.7344C219.461 50.7344 219.066 50.8242 218.73 51.0039C218.402 51.1836 218.129 51.4336 217.91 51.7539C217.699 52.0664 217.539 52.4336 217.43 52.8555C217.32 53.2773 217.266 53.7305 217.266 54.2148Z" fill="#888888"/>
<path d="M114.117 84.875H122.344V107.164C122.344 109.82 121.789 112.07 120.68 113.914C119.57 115.742 118.016 117.125 116.016 118.062C114.016 119 111.664 119.469 108.961 119.469C106.289 119.469 103.938 119 101.906 118.062C99.8906 117.125 98.3125 115.742 97.1719 113.914C96.0469 112.07 95.4844 109.82 95.4844 107.164V84.875H103.734V107.164C103.734 108.57 103.938 109.719 104.344 110.609C104.75 111.484 105.344 112.125 106.125 112.531C106.906 112.938 107.852 113.141 108.961 113.141C110.086 113.141 111.031 112.938 111.797 112.531C112.562 112.125 113.141 111.484 113.531 110.609C113.922 109.719 114.117 108.57 114.117 107.164V84.875ZM136.266 84.875V119H128.062V84.875H136.266ZM172.523 84.875H180.75V107.164C180.75 109.82 180.195 112.07 179.086 113.914C177.977 115.742 176.422 117.125 174.422 118.062C172.422 119 170.07 119.469 167.367 119.469C164.695 119.469 162.344 119 160.312 118.062C158.297 117.125 156.719 115.742 155.578 113.914C154.453 112.07 153.891 109.82 153.891 107.164V84.875H162.141V107.164C162.141 108.57 162.344 109.719 162.75 110.609C163.156 111.484 163.75 112.125 164.531 112.531C165.312 112.938 166.258 113.141 167.367 113.141C168.492 113.141 169.438 112.938 170.203 112.531C170.969 112.125 171.547 111.484 171.938 110.609C172.328 109.719 172.523 108.57 172.523 107.164V84.875ZM193.078 84.875L198.656 96.2188L204.234 84.875H213.609L204.094 101.797L213.867 119H204.398L198.656 107.445L192.914 119H183.422L193.219 101.797L183.68 84.875H193.078Z" fill="black"/>
<path d="M1134 0H1348C1356.28 0 1363 6.71573 1363 15V148C1363 156.284 1356.28 163 1348 163H1134V0Z" fill="#09B3AA"/>
<path d="M1248.5 111.917C1244.51 111.917 1240.55 111.13 1236.86 109.601C1233.17 108.073 1229.82 105.832 1226.99 103.008C1221.29 97.3036 1218.08 89.567 1218.08 81.5C1218.08 73.433 1221.29 65.6964 1226.99 59.9922C1232.7 54.2879 1240.43 51.0833 1248.5 51.0833C1265.23 51.0833 1278.92 63.25 1278.92 78.4583C1278.92 83.2985 1276.99 87.9405 1273.57 91.363C1270.15 94.7856 1265.51 96.7083 1260.67 96.7083H1255.19C1254.28 96.7083 1253.67 97.3167 1253.67 98.2292C1253.67 98.5333 1253.97 98.8375 1253.97 99.1417C1255.19 100.662 1255.8 102.487 1255.8 104.312C1256.1 108.571 1252.76 111.917 1248.5 111.917ZM1248.5 57.1667C1242.05 57.1667 1235.86 59.7303 1231.29 64.2937C1226.73 68.8571 1224.17 75.0464 1224.17 81.5C1224.17 87.9536 1226.73 94.1429 1231.29 98.7063C1235.86 103.27 1242.05 105.833 1248.5 105.833C1249.41 105.833 1250.02 105.225 1250.02 104.312C1250.02 103.704 1249.72 103.4 1249.72 103.096C1248.5 101.575 1247.89 100.054 1247.89 98.2292C1247.89 93.9708 1251.24 90.625 1255.5 90.625H1260.67C1263.89 90.625 1266.99 89.3432 1269.27 87.0615C1271.55 84.7798 1272.83 81.6851 1272.83 78.4583C1272.83 66.5958 1261.88 57.1667 1248.5 57.1667ZM1231.77 75.4167C1234.2 75.4167 1236.33 77.5458 1236.33 79.9792C1236.33 82.4125 1234.2 84.5417 1231.77 84.5417C1229.34 84.5417 1227.21 82.4125 1227.21 79.9792C1227.21 77.5458 1229.34 75.4167 1231.77 75.4167ZM1240.9 63.25C1243.33 63.25 1245.46 65.3792 1245.46 67.8125C1245.46 70.2458 1243.33 72.375 1240.9 72.375C1238.46 72.375 1236.33 70.2458 1236.33 67.8125C1236.33 65.3792 1238.46 63.25 1240.9 63.25ZM1256.1 63.25C1258.54 63.25 1260.67 65.3792 1260.67 67.8125C1260.67 70.2458 1258.54 72.375 1256.1 72.375C1253.67 72.375 1251.54 70.2458 1251.54 67.8125C1251.54 65.3792 1253.67 63.25 1256.1 63.25ZM1265.23 75.4167C1267.66 75.4167 1269.79 77.5458 1269.79 79.9792C1269.79 82.4125 1267.66 84.5417 1265.23 84.5417C1262.8 84.5417 1260.67 82.4125 1260.67 79.9792C1260.67 77.5458 1262.8 75.4167 1265.23 75.4167Z" fill="white"/>
</svg>
