<svg width="1066" height="297" viewBox="0 0 1066 297" fill="none" xmlns="http://www.w3.org/2000/svg">
<path d="M0 15C0 6.71573 6.71573 0 15 0H37V297H15C6.71573 297 0 290.284 0 282V15Z" fill="#09B3AA"/>
<path d="M37 0H1066V297H37V0Z" fill="#F0F0F0"/>
<path d="M116.115 49.4062V75H110.842L100.559 57.8438V75H95.2852V49.4062H100.559L110.859 66.5801V49.4062H116.115ZM125.73 55.9805V75H120.65V55.9805H125.73ZM120.334 51.0234C120.334 50.2852 120.592 49.6758 121.107 49.1953C121.623 48.7148 122.314 48.4746 123.182 48.4746C124.037 48.4746 124.723 48.7148 125.238 49.1953C125.766 49.6758 126.029 50.2852 126.029 51.0234C126.029 51.7617 125.766 52.3711 125.238 52.8516C124.723 53.332 124.037 53.5723 123.182 53.5723C122.314 53.5723 121.623 53.332 121.107 52.8516C120.592 52.3711 120.334 51.7617 120.334 51.0234ZM129.914 48H134.977V70.6406L134.467 75H129.914V48ZM147.018 65.2969V65.666C147.018 67.084 146.865 68.3848 146.561 69.5684C146.268 70.752 145.811 71.7773 145.189 72.6445C144.568 73.5 143.795 74.168 142.869 74.6484C141.955 75.1172 140.877 75.3516 139.635 75.3516C138.475 75.3516 137.467 75.1172 136.611 74.6484C135.768 74.1797 135.059 73.5176 134.484 72.6621C133.91 71.8066 133.447 70.8047 133.096 69.6562C132.744 68.5078 132.48 67.2539 132.305 65.8945V65.0859C132.48 63.7266 132.744 62.4727 133.096 61.3242C133.447 60.1758 133.91 59.1738 134.484 58.3184C135.059 57.4629 135.768 56.8008 136.611 56.332C137.455 55.8633 138.451 55.6289 139.6 55.6289C140.854 55.6289 141.943 55.8691 142.869 56.3496C143.807 56.8184 144.58 57.4863 145.189 58.3535C145.811 59.209 146.268 60.2285 146.561 61.4121C146.865 62.584 147.018 63.8789 147.018 65.2969ZM141.955 65.666V65.2969C141.955 64.5234 141.896 63.7969 141.779 63.1172C141.674 62.4258 141.486 61.8223 141.217 61.3066C140.947 60.7793 140.578 60.3633 140.109 60.0586C139.652 59.7539 139.061 59.6016 138.334 59.6016C137.643 59.6016 137.057 59.7188 136.576 59.9531C136.096 60.1875 135.697 60.5156 135.381 60.9375C135.076 61.3594 134.848 61.8633 134.695 62.4492C134.543 63.0234 134.449 63.6562 134.414 64.3477V66.6504C134.449 67.5762 134.602 68.3965 134.871 69.1113C135.152 69.8145 135.574 70.3711 136.137 70.7812C136.711 71.1797 137.455 71.3789 138.369 71.3789C139.084 71.3789 139.676 71.2383 140.145 70.957C140.613 70.6758 140.977 70.2773 141.234 69.7617C141.504 69.2461 141.691 68.6426 141.797 67.9512C141.902 67.248 141.955 66.4863 141.955 65.666ZM160.43 70.7109V62.2383C160.43 61.6289 160.33 61.1074 160.131 60.6738C159.932 60.2285 159.621 59.8828 159.199 59.6367C158.789 59.3906 158.256 59.2676 157.6 59.2676C157.037 59.2676 156.551 59.3672 156.141 59.5664C155.73 59.7539 155.414 60.0293 155.191 60.3926C154.969 60.7441 154.857 61.1602 154.857 61.6406H149.795C149.795 60.832 149.982 60.0645 150.357 59.3379C150.732 58.6113 151.277 57.9727 151.992 57.4219C152.707 56.8594 153.557 56.4199 154.541 56.1035C155.537 55.7871 156.65 55.6289 157.881 55.6289C159.357 55.6289 160.67 55.875 161.818 56.3672C162.967 56.8594 163.869 57.5977 164.525 58.582C165.193 59.5664 165.527 60.7969 165.527 62.2734V70.4121C165.527 71.4551 165.592 72.3105 165.721 72.9785C165.85 73.6348 166.037 74.209 166.283 74.7012V75H161.168C160.922 74.4844 160.734 73.8398 160.605 73.0664C160.488 72.2812 160.43 71.4961 160.43 70.7109ZM161.098 63.416L161.133 66.2812H158.303C157.635 66.2812 157.055 66.3574 156.562 66.5098C156.07 66.6621 155.666 66.8789 155.35 67.1602C155.033 67.4297 154.799 67.7461 154.646 68.1094C154.506 68.4727 154.436 68.8711 154.436 69.3047C154.436 69.7383 154.535 70.1309 154.734 70.4824C154.934 70.8223 155.221 71.0918 155.596 71.291C155.971 71.4785 156.41 71.5723 156.914 71.5723C157.676 71.5723 158.338 71.4199 158.9 71.1152C159.463 70.8105 159.896 70.4355 160.201 69.9902C160.518 69.5449 160.682 69.123 160.693 68.7246L162.029 70.8691C161.842 71.3496 161.584 71.8477 161.256 72.3633C160.939 72.8789 160.535 73.3652 160.043 73.8223C159.551 74.2676 158.959 74.6367 158.268 74.9297C157.576 75.2109 156.756 75.3516 155.807 75.3516C154.6 75.3516 153.504 75.1113 152.52 74.6309C151.547 74.1387 150.773 73.4648 150.199 72.6094C149.637 71.7422 149.355 70.7578 149.355 69.6562C149.355 68.6602 149.543 67.7754 149.918 67.002C150.293 66.2285 150.844 65.5781 151.57 65.0508C152.309 64.5117 153.229 64.1074 154.33 63.8379C155.432 63.5566 156.709 63.416 158.162 63.416H161.098ZM174.773 48V75H169.693V48H174.773ZM198.645 53.7832L191.684 75H186.076L195.586 49.4062H199.154L198.645 53.7832ZM204.428 75L197.449 53.7832L196.887 49.4062H200.49L210.053 75H204.428ZM204.111 65.4727V69.6035H190.594V65.4727H204.111ZM212.109 48H217.172V70.6406L216.662 75H212.109V48ZM229.213 65.2969V65.666C229.213 67.084 229.061 68.3848 228.756 69.5684C228.463 70.752 228.006 71.7773 227.385 72.6445C226.764 73.5 225.99 74.168 225.064 74.6484C224.15 75.1172 223.072 75.3516 221.83 75.3516C220.67 75.3516 219.662 75.1172 218.807 74.6484C217.963 74.1797 217.254 73.5176 216.68 72.6621C216.105 71.8066 215.643 70.8047 215.291 69.6562C214.939 68.5078 214.676 67.2539 214.5 65.8945V65.0859C214.676 63.7266 214.939 62.4727 215.291 61.3242C215.643 60.1758 216.105 59.1738 216.68 58.3184C217.254 57.4629 217.963 56.8008 218.807 56.332C219.65 55.8633 220.646 55.6289 221.795 55.6289C223.049 55.6289 224.139 55.8691 225.064 56.3496C226.002 56.8184 226.775 57.4863 227.385 58.3535C228.006 59.209 228.463 60.2285 228.756 61.4121C229.061 62.584 229.213 63.8789 229.213 65.2969ZM224.15 65.666V65.2969C224.15 64.5234 224.092 63.7969 223.975 63.1172C223.869 62.4258 223.682 61.8223 223.412 61.3066C223.143 60.7793 222.773 60.3633 222.305 60.0586C221.848 59.7539 221.256 59.6016 220.529 59.6016C219.838 59.6016 219.252 59.7188 218.771 59.9531C218.291 60.1875 217.893 60.5156 217.576 60.9375C217.271 61.3594 217.043 61.8633 216.891 62.4492C216.738 63.0234 216.645 63.6562 216.609 64.3477V66.6504C216.645 67.5762 216.797 68.3965 217.066 69.1113C217.348 69.8145 217.77 70.3711 218.332 70.7812C218.906 71.1797 219.65 71.3789 220.564 71.3789C221.279 71.3789 221.871 71.2383 222.34 70.957C222.809 70.6758 223.172 70.2773 223.43 69.7617C223.699 69.2461 223.887 68.6426 223.992 67.9512C224.098 67.248 224.15 66.4863 224.15 65.666ZM243.592 70.8516V48H248.689V75H244.102L243.592 70.8516ZM231.568 65.7188V65.3496C231.568 63.8965 231.732 62.5781 232.061 61.3945C232.389 60.1992 232.869 59.1738 233.502 58.3184C234.135 57.4629 234.914 56.8008 235.84 56.332C236.766 55.8633 237.82 55.6289 239.004 55.6289C240.117 55.6289 241.09 55.8633 241.922 56.332C242.766 56.8008 243.48 57.4688 244.066 58.3359C244.664 59.1914 245.145 60.2051 245.508 61.377C245.871 62.5371 246.135 63.8086 246.299 65.1914V66C246.135 67.3242 245.871 68.5547 245.508 69.6914C245.145 70.8281 244.664 71.8242 244.066 72.6797C243.48 73.5234 242.766 74.1797 241.922 74.6484C241.078 75.1172 240.094 75.3516 238.969 75.3516C237.785 75.3516 236.73 75.1113 235.805 74.6309C234.891 74.1504 234.117 73.4766 233.484 72.6094C232.863 71.7422 232.389 70.7227 232.061 69.5508C231.732 68.3789 231.568 67.1016 231.568 65.7188ZM236.631 65.3496V65.7188C236.631 66.5039 236.689 67.2363 236.807 67.916C236.936 68.5957 237.141 69.1992 237.422 69.7266C237.715 70.2422 238.09 70.6465 238.547 70.9395C239.016 71.2207 239.584 71.3613 240.252 71.3613C241.119 71.3613 241.834 71.168 242.396 70.7812C242.959 70.3828 243.387 69.8379 243.68 69.1465C243.984 68.4551 244.16 67.6582 244.207 66.7559V64.4531C244.172 63.7148 244.066 63.0527 243.891 62.4668C243.727 61.8691 243.48 61.3594 243.152 60.9375C242.836 60.5156 242.438 60.1875 241.957 59.9531C241.488 59.7188 240.932 59.6016 240.287 59.6016C239.631 59.6016 239.068 59.7539 238.6 60.0586C238.131 60.3516 237.75 60.7559 237.457 61.2715C237.176 61.7871 236.965 62.3965 236.824 63.0996C236.695 63.791 236.631 64.541 236.631 65.3496ZM272.332 53.7832L265.371 75H259.764L269.273 49.4062H272.842L272.332 53.7832ZM278.115 75L271.137 53.7832L270.574 49.4062H274.178L283.74 75H278.115ZM277.799 65.4727V69.6035H264.281V65.4727H277.799ZM291.141 48V75H286.061V48H291.141ZM314.625 63.7676H308.051L308.016 60.1465H313.535C314.508 60.1465 315.305 60.0234 315.926 59.7773C316.547 59.5195 317.01 59.1504 317.314 58.6699C317.631 58.1777 317.789 57.5801 317.789 56.877C317.789 56.0801 317.637 55.4355 317.332 54.9434C317.039 54.4512 316.576 54.0938 315.943 53.8711C315.322 53.6484 314.52 53.5371 313.535 53.5371H309.879V75H304.605V49.4062H313.535C315.023 49.4062 316.354 49.5469 317.525 49.8281C318.709 50.1094 319.711 50.5371 320.531 51.1113C321.352 51.6855 321.979 52.4121 322.412 53.291C322.846 54.1582 323.062 55.1895 323.062 56.3848C323.062 57.4395 322.822 58.4121 322.342 59.3027C321.873 60.1934 321.129 60.9199 320.109 61.4824C319.102 62.0449 317.783 62.3555 316.154 62.4141L314.625 63.7676ZM314.396 75H306.609L308.666 70.8867H314.396C315.322 70.8867 316.078 70.7402 316.664 70.4473C317.25 70.1426 317.684 69.7324 317.965 69.2168C318.246 68.7012 318.387 68.1094 318.387 67.4414C318.387 66.6914 318.258 66.041 318 65.4902C317.754 64.9395 317.355 64.5176 316.805 64.2246C316.254 63.9199 315.527 63.7676 314.625 63.7676H309.545L309.58 60.1465H315.908L317.121 61.5703C318.68 61.5469 319.934 61.8223 320.883 62.3965C321.844 62.959 322.541 63.6914 322.975 64.5938C323.42 65.4961 323.643 66.4629 323.643 67.4941C323.643 69.1348 323.285 70.5176 322.57 71.6426C321.855 72.7559 320.807 73.5938 319.424 74.1562C318.053 74.7188 316.377 75 314.396 75ZM337.547 70.7109V62.2383C337.547 61.6289 337.447 61.1074 337.248 60.6738C337.049 60.2285 336.738 59.8828 336.316 59.6367C335.906 59.3906 335.373 59.2676 334.717 59.2676C334.154 59.2676 333.668 59.3672 333.258 59.5664C332.848 59.7539 332.531 60.0293 332.309 60.3926C332.086 60.7441 331.975 61.1602 331.975 61.6406H326.912C326.912 60.832 327.1 60.0645 327.475 59.3379C327.85 58.6113 328.395 57.9727 329.109 57.4219C329.824 56.8594 330.674 56.4199 331.658 56.1035C332.654 55.7871 333.768 55.6289 334.998 55.6289C336.475 55.6289 337.787 55.875 338.936 56.3672C340.084 56.8594 340.986 57.5977 341.643 58.582C342.311 59.5664 342.645 60.7969 342.645 62.2734V70.4121C342.645 71.4551 342.709 72.3105 342.838 72.9785C342.967 73.6348 343.154 74.209 343.4 74.7012V75H338.285C338.039 74.4844 337.852 73.8398 337.723 73.0664C337.605 72.2812 337.547 71.4961 337.547 70.7109ZM338.215 63.416L338.25 66.2812H335.42C334.752 66.2812 334.172 66.3574 333.68 66.5098C333.188 66.6621 332.783 66.8789 332.467 67.1602C332.15 67.4297 331.916 67.7461 331.764 68.1094C331.623 68.4727 331.553 68.8711 331.553 69.3047C331.553 69.7383 331.652 70.1309 331.852 70.4824C332.051 70.8223 332.338 71.0918 332.713 71.291C333.088 71.4785 333.527 71.5723 334.031 71.5723C334.793 71.5723 335.455 71.4199 336.018 71.1152C336.58 70.8105 337.014 70.4355 337.318 69.9902C337.635 69.5449 337.799 69.123 337.811 68.7246L339.146 70.8691C338.959 71.3496 338.701 71.8477 338.373 72.3633C338.057 72.8789 337.652 73.3652 337.16 73.8223C336.668 74.2676 336.076 74.6367 335.385 74.9297C334.693 75.2109 333.873 75.3516 332.924 75.3516C331.717 75.3516 330.621 75.1113 329.637 74.6309C328.664 74.1387 327.891 73.4648 327.316 72.6094C326.754 71.7422 326.473 70.7578 326.473 69.6562C326.473 68.6602 326.66 67.7754 327.035 67.002C327.41 66.2285 327.961 65.5781 328.688 65.0508C329.426 64.5117 330.346 64.1074 331.447 63.8379C332.549 63.5566 333.826 63.416 335.279 63.416H338.215ZM351.609 47.9824V75H346.547V47.9824H351.609ZM363.598 55.9805L355.336 65.4023L350.906 69.8848L349.061 66.2285L352.576 61.7637L357.516 55.9805H363.598ZM358.342 75L352.717 66.2109L356.215 63.1523L364.178 75H358.342ZM371.121 55.9805V75H366.041V55.9805H371.121ZM365.725 51.0234C365.725 50.2852 365.982 49.6758 366.498 49.1953C367.014 48.7148 367.705 48.4746 368.572 48.4746C369.428 48.4746 370.113 48.7148 370.629 49.1953C371.156 49.6758 371.42 50.2852 371.42 51.0234C371.42 51.7617 371.156 52.3711 370.629 52.8516C370.113 53.332 369.428 53.5723 368.572 53.5723C367.705 53.5723 367.014 53.332 366.498 52.8516C365.982 52.3711 365.725 51.7617 365.725 51.0234Z" fill="#888888"/>
<path d="M100.793 100.188H108.613L117.5 127.887L126.387 100.188H134.207L120.672 140H114.328L100.793 100.188ZM96.0352 100.188H104.129L105.633 130.703V140H96.0352V100.188ZM130.871 100.188H138.992V140H129.367V130.703L130.871 100.188ZM159.035 140.547C156.629 140.547 154.478 140.173 152.582 139.426C150.686 138.66 149.082 137.612 147.77 136.281C146.475 134.951 145.482 133.419 144.789 131.688C144.115 129.956 143.777 128.124 143.777 126.191V125.152C143.777 122.983 144.078 120.978 144.68 119.137C145.281 117.277 146.174 115.655 147.359 114.27C148.544 112.884 150.03 111.809 151.816 111.043C153.603 110.259 155.681 109.867 158.051 109.867C160.147 109.867 162.025 110.204 163.684 110.879C165.342 111.553 166.746 112.52 167.895 113.777C169.061 115.035 169.945 116.557 170.547 118.344C171.167 120.13 171.477 122.135 171.477 124.359V128.105H147.305V122.336H162.48V121.625C162.499 120.641 162.326 119.802 161.961 119.109C161.615 118.417 161.104 117.888 160.43 117.523C159.755 117.159 158.935 116.977 157.969 116.977C156.966 116.977 156.137 117.195 155.48 117.633C154.842 118.07 154.341 118.672 153.977 119.438C153.63 120.185 153.384 121.051 153.238 122.035C153.092 123.02 153.02 124.059 153.02 125.152V126.191C153.02 127.285 153.165 128.279 153.457 129.172C153.767 130.065 154.204 130.831 154.77 131.469C155.353 132.089 156.046 132.572 156.848 132.918C157.668 133.264 158.598 133.438 159.637 133.438C160.895 133.438 162.134 133.201 163.355 132.727C164.577 132.253 165.625 131.469 166.5 130.375L170.684 135.352C170.082 136.208 169.225 137.038 168.113 137.84C167.02 138.642 165.707 139.298 164.176 139.809C162.645 140.301 160.931 140.547 159.035 140.547ZM192.23 133.219V98H201.5V140H193.188L192.23 133.219ZM174.074 125.562V124.988C174.074 122.746 174.32 120.704 174.812 118.863C175.305 117.004 176.034 115.409 177 114.078C177.966 112.729 179.169 111.69 180.609 110.961C182.049 110.232 183.708 109.867 185.586 109.867C187.263 109.867 188.73 110.259 189.988 111.043C191.246 111.809 192.322 112.884 193.215 114.27C194.108 115.655 194.837 117.277 195.402 119.137C195.967 120.978 196.396 122.965 196.688 125.098V125.781C196.396 127.786 195.967 129.682 195.402 131.469C194.837 133.237 194.108 134.805 193.215 136.172C192.322 137.539 191.237 138.615 189.961 139.398C188.703 140.164 187.227 140.547 185.531 140.547C183.654 140.547 181.995 140.173 180.555 139.426C179.133 138.678 177.939 137.63 176.973 136.281C176.025 134.932 175.305 133.346 174.812 131.523C174.32 129.701 174.074 127.714 174.074 125.562ZM183.289 124.988V125.562C183.289 126.674 183.362 127.704 183.508 128.652C183.654 129.6 183.9 130.439 184.246 131.168C184.611 131.879 185.085 132.435 185.668 132.836C186.27 133.237 187.008 133.438 187.883 133.438C189.068 133.438 190.043 133.155 190.809 132.59C191.592 132.025 192.167 131.223 192.531 130.184C192.914 129.145 193.078 127.923 193.023 126.52V124.359C193.06 123.156 192.978 122.099 192.777 121.188C192.577 120.258 192.258 119.483 191.82 118.863C191.401 118.243 190.863 117.779 190.207 117.469C189.569 117.141 188.812 116.977 187.938 116.977C187.081 116.977 186.352 117.177 185.75 117.578C185.167 117.979 184.693 118.544 184.328 119.273C183.964 119.984 183.699 120.832 183.535 121.816C183.371 122.783 183.289 123.84 183.289 124.988ZM222.227 130.621L230.512 100.188H241.258L227.832 140H220.887L222.227 130.621ZM214.707 100.188L222.992 130.621L224.387 140H217.359L204.016 100.188H214.707ZM253.48 110.414V140H244.238V110.414H253.48ZM243.691 102.785C243.691 101.473 244.165 100.397 245.113 99.5586C246.061 98.7201 247.292 98.3008 248.805 98.3008C250.318 98.3008 251.548 98.7201 252.496 99.5586C253.444 100.397 253.918 101.473 253.918 102.785C253.918 104.098 253.444 105.173 252.496 106.012C251.548 106.85 250.318 107.27 248.805 107.27C247.292 107.27 246.061 106.85 245.113 106.012C244.165 105.173 243.691 104.098 243.691 102.785ZM274.672 131.688C274.672 131.177 274.499 130.74 274.152 130.375C273.824 129.992 273.241 129.646 272.402 129.336C271.564 129.008 270.388 128.68 268.875 128.352C267.435 128.042 266.077 127.632 264.801 127.121C263.543 126.611 262.44 125.991 261.492 125.262C260.544 124.533 259.797 123.667 259.25 122.664C258.721 121.661 258.457 120.513 258.457 119.219C258.457 117.961 258.721 116.776 259.25 115.664C259.797 114.534 260.59 113.54 261.629 112.684C262.686 111.809 263.971 111.125 265.484 110.633C266.997 110.122 268.72 109.867 270.652 109.867C273.314 109.867 275.611 110.277 277.543 111.098C279.475 111.9 280.961 113.03 282 114.488C283.057 115.928 283.586 117.596 283.586 119.492H274.371C274.371 118.745 274.243 118.107 273.988 117.578C273.751 117.049 273.359 116.648 272.812 116.375C272.266 116.083 271.536 115.938 270.625 115.938C269.987 115.938 269.404 116.056 268.875 116.293C268.365 116.53 267.954 116.858 267.645 117.277C267.335 117.697 267.18 118.189 267.18 118.754C267.18 119.155 267.271 119.52 267.453 119.848C267.654 120.158 267.954 120.449 268.355 120.723C268.757 120.978 269.267 121.215 269.887 121.434C270.507 121.634 271.254 121.816 272.129 121.98C274.116 122.345 275.975 122.865 277.707 123.539C279.439 124.214 280.842 125.171 281.918 126.41C283.012 127.65 283.559 129.318 283.559 131.414C283.559 132.727 283.258 133.939 282.656 135.051C282.055 136.145 281.189 137.111 280.059 137.949C278.928 138.77 277.57 139.408 275.984 139.863C274.398 140.319 272.612 140.547 270.625 140.547C267.799 140.547 265.411 140.046 263.461 139.043C261.51 138.022 260.034 136.746 259.031 135.215C258.047 133.665 257.555 132.098 257.555 130.512H266.141C266.177 131.423 266.396 132.171 266.797 132.754C267.216 133.337 267.772 133.766 268.465 134.039C269.158 134.312 269.96 134.449 270.871 134.449C271.71 134.449 272.402 134.331 272.949 134.094C273.514 133.857 273.943 133.538 274.234 133.137C274.526 132.717 274.672 132.234 274.672 131.688ZM297.613 110.414V140H288.371V110.414H297.613ZM287.824 102.785C287.824 101.473 288.298 100.397 289.246 99.5586C290.194 98.7201 291.424 98.3008 292.938 98.3008C294.451 98.3008 295.681 98.7201 296.629 99.5586C297.577 100.397 298.051 101.473 298.051 102.785C298.051 104.098 297.577 105.173 296.629 106.012C295.681 106.85 294.451 107.27 292.938 107.27C291.424 107.27 290.194 106.85 289.246 106.012C288.298 105.173 287.824 104.098 287.824 102.785ZM302.152 125.508V124.934C302.152 122.764 302.462 120.768 303.082 118.945C303.702 117.104 304.613 115.509 305.816 114.16C307.02 112.811 308.505 111.763 310.273 111.016C312.042 110.25 314.083 109.867 316.398 109.867C318.732 109.867 320.783 110.25 322.551 111.016C324.337 111.763 325.832 112.811 327.035 114.16C328.238 115.509 329.15 117.104 329.77 118.945C330.389 120.768 330.699 122.764 330.699 124.934V125.508C330.699 127.659 330.389 129.655 329.77 131.496C329.15 133.319 328.238 134.914 327.035 136.281C325.832 137.63 324.346 138.678 322.578 139.426C320.81 140.173 318.768 140.547 316.453 140.547C314.138 140.547 312.087 140.173 310.301 139.426C308.514 138.678 307.02 137.63 305.816 136.281C304.613 134.914 303.702 133.319 303.082 131.496C302.462 129.655 302.152 127.659 302.152 125.508ZM311.367 124.934V125.508C311.367 126.62 311.449 127.659 311.613 128.625C311.777 129.591 312.051 130.439 312.434 131.168C312.816 131.879 313.336 132.435 313.992 132.836C314.648 133.237 315.469 133.438 316.453 133.438C317.419 133.438 318.221 133.237 318.859 132.836C319.516 132.435 320.035 131.879 320.418 131.168C320.801 130.439 321.074 129.591 321.238 128.625C321.402 127.659 321.484 126.62 321.484 125.508V124.934C321.484 123.858 321.402 122.846 321.238 121.898C321.074 120.932 320.801 120.085 320.418 119.355C320.035 118.608 319.516 118.025 318.859 117.605C318.203 117.186 317.383 116.977 316.398 116.977C315.432 116.977 314.621 117.186 313.965 117.605C313.327 118.025 312.816 118.608 312.434 119.355C312.051 120.085 311.777 120.932 311.613 121.898C311.449 122.846 311.367 123.858 311.367 124.934ZM343.852 116.73V140H334.637V110.414H343.277L343.852 116.73ZM342.758 124.195L340.598 124.25C340.598 121.99 340.871 119.975 341.418 118.207C341.965 116.421 342.74 114.908 343.742 113.668C344.745 112.428 345.939 111.49 347.324 110.852C348.728 110.195 350.286 109.867 352 109.867C353.367 109.867 354.616 110.068 355.746 110.469C356.895 110.87 357.879 111.517 358.699 112.41C359.538 113.303 360.176 114.488 360.613 115.965C361.069 117.423 361.297 119.228 361.297 121.379V140H352.027V121.352C352.027 120.167 351.863 119.264 351.535 118.645C351.207 118.007 350.733 117.569 350.113 117.332C349.493 117.095 348.737 116.977 347.844 116.977C346.896 116.977 346.094 117.159 345.438 117.523C344.781 117.888 344.253 118.398 343.852 119.055C343.469 119.693 343.186 120.449 343.004 121.324C342.84 122.199 342.758 123.156 342.758 124.195Z" fill="black"/>
<rect x="93" y="178" width="917" height="77" rx="10" fill="#D3D3D3"/>
<rect x="111" y="196" width="148" height="41" rx="3" fill="#424242"/>
<rect x="111" y="196" width="148" height="41" rx="3" stroke="#424242" stroke-width="4"/>
<path d="M134.234 210.203H139.271C140.255 210.203 141.11 210.35 141.837 210.643C142.563 210.936 143.123 211.369 143.516 211.943C143.914 212.518 144.113 213.227 144.113 214.07C144.113 214.803 143.999 215.415 143.771 215.907C143.542 216.399 143.223 216.807 142.812 217.129C142.408 217.445 141.937 217.706 141.397 217.911L140.387 218.482H136.159L136.142 216.101H139.271C139.663 216.101 139.988 216.03 140.246 215.89C140.504 215.749 140.697 215.55 140.826 215.292C140.961 215.028 141.028 214.715 141.028 214.352C141.028 213.982 140.961 213.666 140.826 213.402C140.691 213.139 140.492 212.937 140.229 212.796C139.971 212.655 139.651 212.585 139.271 212.585H137.319V223H134.234V210.203ZM141.239 223L138.409 217.34L141.679 217.322L144.544 222.868V223H141.239ZM150.441 223.176C149.668 223.176 148.977 223.056 148.367 222.815C147.758 222.569 147.242 222.232 146.82 221.805C146.404 221.377 146.085 220.885 145.862 220.328C145.646 219.771 145.537 219.183 145.537 218.562V218.228C145.537 217.53 145.634 216.886 145.827 216.294C146.021 215.696 146.308 215.175 146.688 214.729C147.069 214.284 147.547 213.938 148.121 213.692C148.695 213.44 149.363 213.314 150.125 213.314C150.799 213.314 151.402 213.423 151.936 213.64C152.469 213.856 152.92 214.167 153.289 214.571C153.664 214.976 153.948 215.465 154.142 216.039C154.341 216.613 154.44 217.258 154.44 217.973V219.177H146.671V217.322H151.549V217.094C151.555 216.777 151.499 216.508 151.382 216.285C151.271 216.062 151.106 215.893 150.89 215.775C150.673 215.658 150.409 215.6 150.099 215.6C149.776 215.6 149.51 215.67 149.299 215.811C149.094 215.951 148.933 216.145 148.815 216.391C148.704 216.631 148.625 216.909 148.578 217.226C148.531 217.542 148.508 217.876 148.508 218.228V218.562C148.508 218.913 148.555 219.232 148.648 219.52C148.748 219.807 148.889 220.053 149.07 220.258C149.258 220.457 149.48 220.612 149.738 220.724C150.002 220.835 150.301 220.891 150.635 220.891C151.039 220.891 151.438 220.814 151.83 220.662C152.223 220.51 152.56 220.258 152.841 219.906L154.186 221.506C153.992 221.781 153.717 222.048 153.359 222.306C153.008 222.563 152.586 222.774 152.094 222.938C151.602 223.097 151.051 223.176 150.441 223.176ZM160.584 220.609V216.689C160.584 216.42 160.546 216.188 160.47 215.995C160.394 215.802 160.273 215.652 160.109 215.547C159.945 215.436 159.726 215.38 159.45 215.38C159.228 215.38 159.037 215.418 158.879 215.494C158.721 215.57 158.601 215.685 158.519 215.837C158.437 215.989 158.396 216.183 158.396 216.417H155.434C155.434 215.978 155.53 215.57 155.724 215.195C155.923 214.814 156.204 214.483 156.567 214.202C156.937 213.921 157.376 213.704 157.886 213.552C158.401 213.394 158.976 213.314 159.608 213.314C160.364 213.314 161.038 213.44 161.63 213.692C162.228 213.944 162.699 214.322 163.045 214.826C163.391 215.324 163.563 215.951 163.563 216.707V220.601C163.563 221.222 163.599 221.693 163.669 222.016C163.739 222.332 163.839 222.61 163.968 222.851V223H160.997C160.856 222.707 160.751 222.35 160.681 221.928C160.616 221.5 160.584 221.061 160.584 220.609ZM160.944 217.19L160.962 218.772H159.652C159.377 218.772 159.143 218.811 158.949 218.887C158.762 218.963 158.609 219.068 158.492 219.203C158.381 219.332 158.299 219.479 158.246 219.643C158.199 219.807 158.176 219.979 158.176 220.161C158.176 220.337 158.217 220.495 158.299 220.636C158.387 220.771 158.504 220.876 158.65 220.952C158.797 221.028 158.961 221.066 159.143 221.066C159.471 221.066 159.749 221.005 159.978 220.882C160.212 220.753 160.391 220.598 160.514 220.416C160.637 220.234 160.698 220.064 160.698 219.906L161.349 221.119C161.231 221.354 161.097 221.591 160.944 221.831C160.798 222.071 160.613 222.294 160.391 222.499C160.174 222.698 159.907 222.862 159.591 222.991C159.274 223.114 158.891 223.176 158.439 223.176C157.854 223.176 157.314 223.056 156.822 222.815C156.336 222.575 155.946 222.241 155.653 221.813C155.36 221.38 155.214 220.882 155.214 220.319C155.214 219.827 155.302 219.388 155.478 219.001C155.659 218.614 155.932 218.286 156.295 218.017C156.658 217.747 157.121 217.542 157.684 217.401C158.246 217.261 158.908 217.19 159.67 217.19H160.944ZM169.224 220.891C169.499 220.891 169.733 220.841 169.927 220.741C170.126 220.636 170.275 220.489 170.375 220.302C170.48 220.108 170.53 219.877 170.524 219.607H173.311C173.316 220.322 173.141 220.949 172.783 221.488C172.432 222.021 171.951 222.438 171.342 222.736C170.738 223.029 170.056 223.176 169.294 223.176C168.55 223.176 167.899 223.056 167.343 222.815C166.786 222.569 166.32 222.229 165.945 221.796C165.576 221.356 165.298 220.844 165.11 220.258C164.929 219.672 164.838 219.036 164.838 218.351V218.148C164.838 217.463 164.929 216.827 165.11 216.241C165.298 215.649 165.576 215.137 165.945 214.703C166.32 214.264 166.783 213.924 167.334 213.684C167.891 213.438 168.538 213.314 169.276 213.314C170.067 213.314 170.765 213.464 171.368 213.763C171.978 214.062 172.455 214.495 172.801 215.063C173.146 215.632 173.316 216.32 173.311 217.129H170.524C170.53 216.842 170.486 216.584 170.393 216.355C170.299 216.127 170.152 215.945 169.953 215.811C169.76 215.67 169.511 215.6 169.206 215.6C168.901 215.6 168.655 215.667 168.468 215.802C168.28 215.937 168.137 216.124 168.037 216.364C167.943 216.599 167.879 216.868 167.844 217.173C167.814 217.478 167.8 217.803 167.8 218.148V218.351C167.8 218.702 167.814 219.033 167.844 219.344C167.879 219.648 167.946 219.918 168.046 220.152C168.146 220.381 168.289 220.562 168.477 220.697C168.664 220.826 168.913 220.891 169.224 220.891ZM179.586 213.49V215.547H173.855V213.49H179.586ZM175.06 211.126H178.021V219.897C178.021 220.149 178.051 220.346 178.109 220.486C178.168 220.621 178.268 220.718 178.408 220.776C178.555 220.829 178.748 220.855 178.988 220.855C179.158 220.855 179.299 220.853 179.41 220.847C179.521 220.835 179.627 220.82 179.727 220.803V222.921C179.475 223.003 179.211 223.064 178.936 223.105C178.66 223.152 178.367 223.176 178.057 223.176C177.424 223.176 176.882 223.076 176.431 222.877C175.985 222.678 175.646 222.364 175.411 221.937C175.177 221.509 175.06 220.952 175.06 220.267V211.126ZM196.074 210.203V223H192.998L188.472 215.037V223H185.387V210.203H188.472L192.998 218.166V210.203H196.074ZM202.824 220.609V216.689C202.824 216.42 202.786 216.188 202.71 215.995C202.634 215.802 202.514 215.652 202.35 215.547C202.186 215.436 201.966 215.38 201.69 215.38C201.468 215.38 201.277 215.418 201.119 215.494C200.961 215.57 200.841 215.685 200.759 215.837C200.677 215.989 200.636 216.183 200.636 216.417H197.674C197.674 215.978 197.771 215.57 197.964 215.195C198.163 214.814 198.444 214.483 198.808 214.202C199.177 213.921 199.616 213.704 200.126 213.552C200.642 213.394 201.216 213.314 201.849 213.314C202.604 213.314 203.278 213.44 203.87 213.692C204.468 213.944 204.939 214.322 205.285 214.826C205.631 215.324 205.804 215.951 205.804 216.707V220.601C205.804 221.222 205.839 221.693 205.909 222.016C205.979 222.332 206.079 222.61 206.208 222.851V223H203.237C203.097 222.707 202.991 222.35 202.921 221.928C202.856 221.5 202.824 221.061 202.824 220.609ZM203.185 217.19L203.202 218.772H201.893C201.617 218.772 201.383 218.811 201.189 218.887C201.002 218.963 200.85 219.068 200.732 219.203C200.621 219.332 200.539 219.479 200.486 219.643C200.439 219.807 200.416 219.979 200.416 220.161C200.416 220.337 200.457 220.495 200.539 220.636C200.627 220.771 200.744 220.876 200.891 220.952C201.037 221.028 201.201 221.066 201.383 221.066C201.711 221.066 201.989 221.005 202.218 220.882C202.452 220.753 202.631 220.598 202.754 220.416C202.877 220.234 202.938 220.064 202.938 219.906L203.589 221.119C203.472 221.354 203.337 221.591 203.185 221.831C203.038 222.071 202.854 222.294 202.631 222.499C202.414 222.698 202.147 222.862 201.831 222.991C201.515 223.114 201.131 223.176 200.68 223.176C200.094 223.176 199.555 223.056 199.062 222.815C198.576 222.575 198.187 222.241 197.894 221.813C197.601 221.38 197.454 220.882 197.454 220.319C197.454 219.827 197.542 219.388 197.718 219.001C197.899 218.614 198.172 218.286 198.535 218.017C198.898 217.747 199.361 217.542 199.924 217.401C200.486 217.261 201.148 217.19 201.91 217.19H203.185ZM212.457 213.49V215.547H206.727V213.49H212.457ZM207.931 211.126H210.893V219.897C210.893 220.149 210.922 220.346 210.98 220.486C211.039 220.621 211.139 220.718 211.279 220.776C211.426 220.829 211.619 220.855 211.859 220.855C212.029 220.855 212.17 220.853 212.281 220.847C212.393 220.835 212.498 220.82 212.598 220.803V222.921C212.346 223.003 212.082 223.064 211.807 223.105C211.531 223.152 211.238 223.176 210.928 223.176C210.295 223.176 209.753 223.076 209.302 222.877C208.856 222.678 208.517 222.364 208.282 221.937C208.048 221.509 207.931 220.952 207.931 220.267V211.126ZM216.764 213.49V223H213.793V213.49H216.764ZM213.617 211.038C213.617 210.616 213.77 210.271 214.074 210.001C214.379 209.731 214.774 209.597 215.261 209.597C215.747 209.597 216.143 209.731 216.447 210.001C216.752 210.271 216.904 210.616 216.904 211.038C216.904 211.46 216.752 211.806 216.447 212.075C216.143 212.345 215.747 212.479 215.261 212.479C214.774 212.479 214.379 212.345 214.074 212.075C213.77 211.806 213.617 211.46 213.617 211.038ZM222.02 220.97L223.892 213.49H227.012L223.9 223H222.055L222.02 220.97ZM220.912 213.49L222.758 220.97L222.74 223H220.886L217.783 213.49H220.912ZM232.373 223.176C231.6 223.176 230.908 223.056 230.299 222.815C229.689 222.569 229.174 222.232 228.752 221.805C228.336 221.377 228.017 220.885 227.794 220.328C227.577 219.771 227.469 219.183 227.469 218.562V218.228C227.469 217.53 227.565 216.886 227.759 216.294C227.952 215.696 228.239 215.175 228.62 214.729C229.001 214.284 229.479 213.938 230.053 213.692C230.627 213.44 231.295 213.314 232.057 213.314C232.73 213.314 233.334 213.423 233.867 213.64C234.4 213.856 234.852 214.167 235.221 214.571C235.596 214.976 235.88 215.465 236.073 216.039C236.272 216.613 236.372 217.258 236.372 217.973V219.177H228.603V217.322H233.48V217.094C233.486 216.777 233.431 216.508 233.313 216.285C233.202 216.062 233.038 215.893 232.821 215.775C232.604 215.658 232.341 215.6 232.03 215.6C231.708 215.6 231.441 215.67 231.23 215.811C231.025 215.951 230.864 216.145 230.747 216.391C230.636 216.631 230.557 216.909 230.51 217.226C230.463 217.542 230.439 217.876 230.439 218.228V218.562C230.439 218.913 230.486 219.232 230.58 219.52C230.68 219.807 230.82 220.053 231.002 220.258C231.189 220.457 231.412 220.612 231.67 220.724C231.934 220.835 232.232 220.891 232.566 220.891C232.971 220.891 233.369 220.814 233.762 220.662C234.154 220.51 234.491 220.258 234.772 219.906L236.117 221.506C235.924 221.781 235.648 222.048 235.291 222.306C234.939 222.563 234.518 222.774 234.025 222.938C233.533 223.097 232.982 223.176 232.373 223.176Z" fill="white"/>
<rect x="279" y="196" width="62" height="41" rx="3" fill="#424242"/>
<rect x="279" y="196" width="62" height="41" rx="3" stroke="#424242" stroke-width="4"/>
<path d="M307.785 212.893L304.665 223H301.352L306.054 210.203H308.154L307.785 212.893ZM310.369 223L307.24 212.893L306.836 210.203H308.963L313.691 223H310.369ZM310.246 218.228V220.609H303.681V218.228H310.246ZM317.62 213.49V223H314.649V213.49H317.62ZM314.474 211.038C314.474 210.616 314.626 210.271 314.931 210.001C315.235 209.731 315.631 209.597 316.117 209.597C316.604 209.597 316.999 209.731 317.304 210.001C317.608 210.271 317.761 210.616 317.761 211.038C317.761 211.46 317.608 211.806 317.304 212.075C316.999 212.345 316.604 212.479 316.117 212.479C315.631 212.479 315.235 212.345 314.931 212.075C314.626 211.806 314.474 211.46 314.474 211.038Z" fill="white"/>
<rect x="361" y="196" width="109" height="41" rx="3" fill="#424242"/>
<rect x="361" y="196" width="109" height="41" rx="3" stroke="#424242" stroke-width="4"/>
<path d="M395.118 210.203V223H392.042L387.516 215.037V223H384.431V210.203H387.516L392.042 218.166V210.203H395.118ZM396.56 218.342V218.157C396.56 217.46 396.659 216.818 396.858 216.232C397.058 215.641 397.351 215.128 397.737 214.694C398.124 214.261 398.602 213.924 399.17 213.684C399.738 213.438 400.395 213.314 401.139 213.314C401.889 213.314 402.548 213.438 403.116 213.684C403.69 213.924 404.171 214.261 404.558 214.694C404.944 215.128 405.237 215.641 405.437 216.232C405.636 216.818 405.735 217.46 405.735 218.157V218.342C405.735 219.033 405.636 219.675 405.437 220.267C405.237 220.853 404.944 221.365 404.558 221.805C404.171 222.238 403.693 222.575 403.125 222.815C402.557 223.056 401.9 223.176 401.156 223.176C400.412 223.176 399.753 223.056 399.179 222.815C398.604 222.575 398.124 222.238 397.737 221.805C397.351 221.365 397.058 220.853 396.858 220.267C396.659 219.675 396.56 219.033 396.56 218.342ZM399.521 218.157V218.342C399.521 218.699 399.548 219.033 399.601 219.344C399.653 219.654 399.741 219.927 399.864 220.161C399.987 220.39 400.154 220.568 400.365 220.697C400.576 220.826 400.84 220.891 401.156 220.891C401.467 220.891 401.725 220.826 401.93 220.697C402.141 220.568 402.308 220.39 402.431 220.161C402.554 219.927 402.642 219.654 402.694 219.344C402.747 219.033 402.773 218.699 402.773 218.342V218.157C402.773 217.812 402.747 217.486 402.694 217.182C402.642 216.871 402.554 216.599 402.431 216.364C402.308 216.124 402.141 215.937 401.93 215.802C401.719 215.667 401.455 215.6 401.139 215.6C400.828 215.6 400.567 215.667 400.356 215.802C400.151 215.937 399.987 216.124 399.864 216.364C399.741 216.599 399.653 216.871 399.601 217.182C399.548 217.486 399.521 217.812 399.521 218.157ZM412.521 220.82V209.5H415.5V223H412.828L412.521 220.82ZM406.685 218.359V218.175C406.685 217.454 406.764 216.798 406.922 216.206C407.08 215.608 407.314 215.096 407.625 214.668C407.936 214.234 408.322 213.9 408.785 213.666C409.248 213.432 409.781 213.314 410.385 213.314C410.924 213.314 411.396 213.44 411.8 213.692C412.204 213.938 412.55 214.284 412.837 214.729C413.124 215.175 413.358 215.696 413.54 216.294C413.722 216.886 413.859 217.524 413.953 218.21V218.43C413.859 219.074 413.722 219.684 413.54 220.258C413.358 220.826 413.124 221.33 412.837 221.77C412.55 222.209 412.201 222.555 411.791 222.807C411.387 223.053 410.912 223.176 410.367 223.176C409.764 223.176 409.23 223.056 408.768 222.815C408.311 222.575 407.927 222.238 407.616 221.805C407.312 221.371 407.08 220.861 406.922 220.275C406.764 219.689 406.685 219.051 406.685 218.359ZM409.646 218.175V218.359C409.646 218.717 409.67 219.048 409.717 219.353C409.764 219.657 409.843 219.927 409.954 220.161C410.071 220.39 410.224 220.568 410.411 220.697C410.604 220.826 410.842 220.891 411.123 220.891C411.504 220.891 411.817 220.8 412.063 220.618C412.315 220.437 412.5 220.179 412.617 219.845C412.74 219.511 412.793 219.118 412.775 218.667V217.973C412.787 217.586 412.761 217.246 412.696 216.953C412.632 216.654 412.529 216.405 412.389 216.206C412.254 216.007 412.081 215.857 411.87 215.758C411.665 215.652 411.422 215.6 411.141 215.6C410.865 215.6 410.631 215.664 410.438 215.793C410.25 215.922 410.098 216.104 409.98 216.338C409.863 216.566 409.778 216.839 409.726 217.155C409.673 217.466 409.646 217.806 409.646 218.175ZM421.784 223.176C421.011 223.176 420.319 223.056 419.71 222.815C419.101 222.569 418.585 222.232 418.163 221.805C417.747 221.377 417.428 220.885 417.205 220.328C416.988 219.771 416.88 219.183 416.88 218.562V218.228C416.88 217.53 416.977 216.886 417.17 216.294C417.363 215.696 417.65 215.175 418.031 214.729C418.412 214.284 418.89 213.938 419.464 213.692C420.038 213.44 420.706 213.314 421.468 213.314C422.142 213.314 422.745 213.423 423.278 213.64C423.812 213.856 424.263 214.167 424.632 214.571C425.007 214.976 425.291 215.465 425.484 216.039C425.684 216.613 425.783 217.258 425.783 217.973V219.177H418.014V217.322H422.892V217.094C422.897 216.777 422.842 216.508 422.725 216.285C422.613 216.062 422.449 215.893 422.232 215.775C422.016 215.658 421.752 215.6 421.441 215.6C421.119 215.6 420.853 215.67 420.642 215.811C420.437 215.951 420.275 216.145 420.158 216.391C420.047 216.631 419.968 216.909 419.921 217.226C419.874 217.542 419.851 217.876 419.851 218.228V218.562C419.851 218.913 419.897 219.232 419.991 219.52C420.091 219.807 420.231 220.053 420.413 220.258C420.601 220.457 420.823 220.612 421.081 220.724C421.345 220.835 421.644 220.891 421.978 220.891C422.382 220.891 422.78 220.814 423.173 220.662C423.565 220.51 423.902 220.258 424.184 219.906L425.528 221.506C425.335 221.781 425.06 222.048 424.702 222.306C424.351 222.563 423.929 222.774 423.437 222.938C422.944 223.097 422.394 223.176 421.784 223.176ZM432.217 218.983V210.203H435.293V218.983C435.293 219.839 435.097 220.58 434.704 221.207C434.317 221.834 433.79 222.32 433.122 222.666C432.46 223.006 431.716 223.176 430.89 223.176C430.034 223.176 429.272 223.032 428.604 222.745C427.942 222.458 427.421 222.016 427.04 221.418C426.665 220.82 426.478 220.059 426.478 219.133H429.571C429.571 219.566 429.621 219.906 429.721 220.152C429.82 220.393 429.967 220.562 430.16 220.662C430.359 220.756 430.603 220.803 430.89 220.803C431.171 220.803 431.408 220.732 431.602 220.592C431.801 220.445 431.953 220.237 432.059 219.968C432.164 219.692 432.217 219.364 432.217 218.983ZM443.845 219.599C443.845 219.399 443.815 219.221 443.757 219.062C443.698 218.898 443.59 218.746 443.432 218.605C443.273 218.465 443.045 218.324 442.746 218.184C442.453 218.037 442.066 217.885 441.586 217.727C441.023 217.539 440.481 217.328 439.96 217.094C439.438 216.854 438.973 216.575 438.562 216.259C438.152 215.937 437.827 215.562 437.587 215.134C437.347 214.7 437.227 214.196 437.227 213.622C437.227 213.071 437.35 212.576 437.596 212.137C437.842 211.691 438.185 211.313 438.624 211.003C439.069 210.687 439.591 210.446 440.188 210.282C440.786 210.112 441.439 210.027 442.148 210.027C443.086 210.027 443.912 210.191 444.627 210.52C445.348 210.842 445.91 211.302 446.314 211.899C446.725 212.491 446.93 213.191 446.93 214H443.862C443.862 213.678 443.795 213.394 443.66 213.147C443.531 212.901 443.335 212.708 443.071 212.567C442.808 212.427 442.477 212.356 442.078 212.356C441.691 212.356 441.366 212.415 441.103 212.532C440.839 212.649 440.64 212.808 440.505 213.007C440.37 213.2 440.303 213.414 440.303 213.648C440.303 213.842 440.355 214.018 440.461 214.176C440.572 214.328 440.728 214.472 440.927 214.606C441.132 214.741 441.378 214.87 441.665 214.993C441.958 215.116 442.286 215.236 442.649 215.354C443.329 215.57 443.933 215.813 444.46 216.083C444.993 216.347 445.441 216.648 445.805 216.988C446.174 217.322 446.452 217.703 446.64 218.131C446.833 218.559 446.93 219.042 446.93 219.581C446.93 220.155 446.818 220.665 446.596 221.11C446.373 221.556 446.054 221.934 445.638 222.244C445.222 222.549 444.724 222.78 444.144 222.938C443.563 223.097 442.916 223.176 442.201 223.176C441.545 223.176 440.897 223.094 440.259 222.93C439.626 222.76 439.052 222.502 438.536 222.156C438.021 221.805 437.607 221.356 437.297 220.812C436.992 220.261 436.84 219.607 436.84 218.852H439.934C439.934 219.227 439.983 219.543 440.083 219.801C440.183 220.059 440.329 220.267 440.522 220.425C440.716 220.577 440.953 220.688 441.234 220.759C441.516 220.823 441.838 220.855 442.201 220.855C442.594 220.855 442.91 220.8 443.15 220.688C443.391 220.571 443.566 220.419 443.678 220.231C443.789 220.038 443.845 219.827 443.845 219.599Z" fill="white"/>
<rect x="490" y="196" width="186" height="41" rx="3" fill="#424242"/>
<rect x="490" y="196" width="186" height="41" rx="3" stroke="#424242" stroke-width="4"/>
<path d="M514.806 210.203H517.319L520.176 219.106L523.032 210.203H525.546L521.195 223H519.156L514.806 210.203ZM513.276 210.203H515.878L516.361 220.012V223H513.276V210.203ZM524.474 210.203H527.084V223H523.99V220.012L524.474 210.203ZM533.86 220.609V216.689C533.86 216.42 533.822 216.188 533.746 215.995C533.67 215.802 533.55 215.652 533.386 215.547C533.222 215.436 533.002 215.38 532.727 215.38C532.504 215.38 532.313 215.418 532.155 215.494C531.997 215.57 531.877 215.685 531.795 215.837C531.713 215.989 531.672 216.183 531.672 216.417H528.71C528.71 215.978 528.807 215.57 529 215.195C529.199 214.814 529.48 214.483 529.844 214.202C530.213 213.921 530.652 213.704 531.162 213.552C531.678 213.394 532.252 213.314 532.885 213.314C533.641 213.314 534.314 213.44 534.906 213.692C535.504 213.944 535.976 214.322 536.321 214.826C536.667 215.324 536.84 215.951 536.84 216.707V220.601C536.84 221.222 536.875 221.693 536.945 222.016C537.016 222.332 537.115 222.61 537.244 222.851V223H534.273C534.133 222.707 534.027 222.35 533.957 221.928C533.893 221.5 533.86 221.061 533.86 220.609ZM534.221 217.19L534.238 218.772H532.929C532.653 218.772 532.419 218.811 532.226 218.887C532.038 218.963 531.886 219.068 531.769 219.203C531.657 219.332 531.575 219.479 531.522 219.643C531.476 219.807 531.452 219.979 531.452 220.161C531.452 220.337 531.493 220.495 531.575 220.636C531.663 220.771 531.78 220.876 531.927 220.952C532.073 221.028 532.237 221.066 532.419 221.066C532.747 221.066 533.025 221.005 533.254 220.882C533.488 220.753 533.667 220.598 533.79 220.416C533.913 220.234 533.975 220.064 533.975 219.906L534.625 221.119C534.508 221.354 534.373 221.591 534.221 221.831C534.074 222.071 533.89 222.294 533.667 222.499C533.45 222.698 533.184 222.862 532.867 222.991C532.551 223.114 532.167 223.176 531.716 223.176C531.13 223.176 530.591 223.056 530.099 222.815C529.612 222.575 529.223 222.241 528.93 221.813C528.637 221.38 528.49 220.882 528.49 220.319C528.49 219.827 528.578 219.388 528.754 219.001C528.936 218.614 529.208 218.286 529.571 218.017C529.935 217.747 530.397 217.542 530.96 217.401C531.522 217.261 532.185 217.19 532.946 217.19H534.221ZM542.5 220.891C542.775 220.891 543.01 220.841 543.203 220.741C543.402 220.636 543.552 220.489 543.651 220.302C543.757 220.108 543.807 219.877 543.801 219.607H546.587C546.593 220.322 546.417 220.949 546.06 221.488C545.708 222.021 545.228 222.438 544.618 222.736C544.015 223.029 543.332 223.176 542.57 223.176C541.826 223.176 541.176 223.056 540.619 222.815C540.062 222.569 539.597 222.229 539.222 221.796C538.853 221.356 538.574 220.844 538.387 220.258C538.205 219.672 538.114 219.036 538.114 218.351V218.148C538.114 217.463 538.205 216.827 538.387 216.241C538.574 215.649 538.853 215.137 539.222 214.703C539.597 214.264 540.06 213.924 540.61 213.684C541.167 213.438 541.814 213.314 542.553 213.314C543.344 213.314 544.041 213.464 544.645 213.763C545.254 214.062 545.731 214.495 546.077 215.063C546.423 215.632 546.593 216.32 546.587 217.129H543.801C543.807 216.842 543.763 216.584 543.669 216.355C543.575 216.127 543.429 215.945 543.229 215.811C543.036 215.67 542.787 215.6 542.482 215.6C542.178 215.6 541.932 215.667 541.744 215.802C541.557 215.937 541.413 216.124 541.313 216.364C541.22 216.599 541.155 216.868 541.12 217.173C541.091 217.478 541.076 217.803 541.076 218.148V218.351C541.076 218.702 541.091 219.033 541.12 219.344C541.155 219.648 541.223 219.918 541.322 220.152C541.422 220.381 541.565 220.562 541.753 220.697C541.94 220.826 542.189 220.891 542.5 220.891ZM550.753 209.5V223H547.791V209.5H550.753ZM550.401 217.92L549.707 217.938C549.707 217.27 549.789 216.654 549.953 216.092C550.117 215.529 550.352 215.04 550.656 214.624C550.961 214.208 551.327 213.886 551.755 213.657C552.183 213.429 552.657 213.314 553.179 213.314C553.647 213.314 554.075 213.382 554.462 213.517C554.854 213.651 555.191 213.868 555.473 214.167C555.76 214.466 555.979 214.855 556.132 215.336C556.29 215.816 556.369 216.402 556.369 217.094V223H553.39V217.076C553.39 216.689 553.334 216.391 553.223 216.18C553.117 215.963 552.965 215.813 552.766 215.731C552.566 215.644 552.323 215.6 552.036 215.6C551.69 215.6 551.409 215.658 551.192 215.775C550.976 215.893 550.809 216.057 550.691 216.268C550.58 216.473 550.504 216.716 550.463 216.997C550.422 217.278 550.401 217.586 550.401 217.92ZM561.142 213.49V223H558.171V213.49H561.142ZM557.995 211.038C557.995 210.616 558.147 210.271 558.452 210.001C558.757 209.731 559.152 209.597 559.639 209.597C560.125 209.597 560.521 209.731 560.825 210.001C561.13 210.271 561.282 210.616 561.282 211.038C561.282 211.46 561.13 211.806 560.825 212.075C560.521 212.345 560.125 212.479 559.639 212.479C559.152 212.479 558.757 212.345 558.452 212.075C558.147 211.806 557.995 211.46 557.995 211.038ZM565.879 215.521V223H562.917V213.49H565.694L565.879 215.521ZM565.527 217.92L564.833 217.938C564.833 217.211 564.921 216.563 565.097 215.995C565.272 215.421 565.521 214.935 565.844 214.536C566.166 214.138 566.55 213.836 566.995 213.631C567.446 213.42 567.947 213.314 568.498 213.314C568.938 213.314 569.339 213.379 569.702 213.508C570.071 213.637 570.388 213.845 570.651 214.132C570.921 214.419 571.126 214.8 571.267 215.274C571.413 215.743 571.486 216.323 571.486 217.015V223H568.507V217.006C568.507 216.625 568.454 216.335 568.349 216.136C568.243 215.931 568.091 215.79 567.892 215.714C567.692 215.638 567.449 215.6 567.162 215.6C566.857 215.6 566.6 215.658 566.389 215.775C566.178 215.893 566.008 216.057 565.879 216.268C565.756 216.473 565.665 216.716 565.606 216.997C565.554 217.278 565.527 217.586 565.527 217.92ZM577.735 223.176C576.962 223.176 576.271 223.056 575.661 222.815C575.052 222.569 574.536 222.232 574.114 221.805C573.698 221.377 573.379 220.885 573.156 220.328C572.939 219.771 572.831 219.183 572.831 218.562V218.228C572.831 217.53 572.928 216.886 573.121 216.294C573.314 215.696 573.602 215.175 573.982 214.729C574.363 214.284 574.841 213.938 575.415 213.692C575.989 213.44 576.657 213.314 577.419 213.314C578.093 213.314 578.696 213.423 579.229 213.64C579.763 213.856 580.214 214.167 580.583 214.571C580.958 214.976 581.242 215.465 581.436 216.039C581.635 216.613 581.734 217.258 581.734 217.973V219.177H573.965V217.322H578.843V217.094C578.849 216.777 578.793 216.508 578.676 216.285C578.564 216.062 578.4 215.893 578.184 215.775C577.967 215.658 577.703 215.6 577.393 215.6C577.07 215.6 576.804 215.67 576.593 215.811C576.388 215.951 576.227 216.145 576.109 216.391C575.998 216.631 575.919 216.909 575.872 217.226C575.825 217.542 575.802 217.876 575.802 218.228V218.562C575.802 218.913 575.849 219.232 575.942 219.52C576.042 219.807 576.183 220.053 576.364 220.258C576.552 220.457 576.774 220.612 577.032 220.724C577.296 220.835 577.595 220.891 577.929 220.891C578.333 220.891 578.731 220.814 579.124 220.662C579.517 220.51 579.854 220.258 580.135 219.906L581.479 221.506C581.286 221.781 581.011 222.048 580.653 222.306C580.302 222.563 579.88 222.774 579.388 222.938C578.896 223.097 578.345 223.176 577.735 223.176ZM591.534 220.627V223H585.065V220.627H591.534ZM586.164 210.203V223H583.079V210.203H586.164ZM597.3 223.176C596.526 223.176 595.835 223.056 595.226 222.815C594.616 222.569 594.101 222.232 593.679 221.805C593.263 221.377 592.943 220.885 592.721 220.328C592.504 219.771 592.396 219.183 592.396 218.562V218.228C592.396 217.53 592.492 216.886 592.686 216.294C592.879 215.696 593.166 215.175 593.547 214.729C593.928 214.284 594.405 213.938 594.979 213.692C595.554 213.44 596.222 213.314 596.983 213.314C597.657 213.314 598.261 213.423 598.794 213.64C599.327 213.856 599.778 214.167 600.147 214.571C600.522 214.976 600.807 215.465 601 216.039C601.199 216.613 601.299 217.258 601.299 217.973V219.177H593.529V217.322H598.407V217.094C598.413 216.777 598.357 216.508 598.24 216.285C598.129 216.062 597.965 215.893 597.748 215.775C597.531 215.658 597.268 215.6 596.957 215.6C596.635 215.6 596.368 215.67 596.157 215.811C595.952 215.951 595.791 216.145 595.674 216.391C595.562 216.631 595.483 216.909 595.437 217.226C595.39 217.542 595.366 217.876 595.366 218.228V218.562C595.366 218.913 595.413 219.232 595.507 219.52C595.606 219.807 595.747 220.053 595.929 220.258C596.116 220.457 596.339 220.612 596.597 220.724C596.86 220.835 597.159 220.891 597.493 220.891C597.897 220.891 598.296 220.814 598.688 220.662C599.081 220.51 599.418 220.258 599.699 219.906L601.044 221.506C600.851 221.781 600.575 222.048 600.218 222.306C599.866 222.563 599.444 222.774 598.952 222.938C598.46 223.097 597.909 223.176 597.3 223.176ZM607.442 220.609V216.689C607.442 216.42 607.404 216.188 607.328 215.995C607.252 215.802 607.132 215.652 606.968 215.547C606.804 215.436 606.584 215.38 606.309 215.38C606.086 215.38 605.896 215.418 605.737 215.494C605.579 215.57 605.459 215.685 605.377 215.837C605.295 215.989 605.254 216.183 605.254 216.417H602.292C602.292 215.978 602.389 215.57 602.582 215.195C602.781 214.814 603.062 214.483 603.426 214.202C603.795 213.921 604.234 213.704 604.744 213.552C605.26 213.394 605.834 213.314 606.467 213.314C607.223 213.314 607.896 213.44 608.488 213.692C609.086 213.944 609.558 214.322 609.903 214.826C610.249 215.324 610.422 215.951 610.422 216.707V220.601C610.422 221.222 610.457 221.693 610.527 222.016C610.598 222.332 610.697 222.61 610.826 222.851V223H607.855C607.715 222.707 607.609 222.35 607.539 221.928C607.475 221.5 607.442 221.061 607.442 220.609ZM607.803 217.19L607.82 218.772H606.511C606.235 218.772 606.001 218.811 605.808 218.887C605.62 218.963 605.468 219.068 605.351 219.203C605.239 219.332 605.157 219.479 605.104 219.643C605.058 219.807 605.034 219.979 605.034 220.161C605.034 220.337 605.075 220.495 605.157 220.636C605.245 220.771 605.362 220.876 605.509 220.952C605.655 221.028 605.819 221.066 606.001 221.066C606.329 221.066 606.607 221.005 606.836 220.882C607.07 220.753 607.249 220.598 607.372 220.416C607.495 220.234 607.557 220.064 607.557 219.906L608.207 221.119C608.09 221.354 607.955 221.591 607.803 221.831C607.656 222.071 607.472 222.294 607.249 222.499C607.032 222.698 606.766 222.862 606.449 222.991C606.133 223.114 605.749 223.176 605.298 223.176C604.712 223.176 604.173 223.056 603.681 222.815C603.194 222.575 602.805 222.241 602.512 221.813C602.219 221.38 602.072 220.882 602.072 220.319C602.072 219.827 602.16 219.388 602.336 219.001C602.518 218.614 602.79 218.286 603.153 218.017C603.517 217.747 603.979 217.542 604.542 217.401C605.104 217.261 605.767 217.19 606.528 217.19H607.803ZM615.054 215.846V223H612.092V213.49H614.86L615.054 215.846ZM617.866 213.42L617.813 216.171C617.696 216.159 617.538 216.145 617.339 216.127C617.14 216.109 616.973 216.101 616.838 216.101C616.492 216.101 616.193 216.142 615.941 216.224C615.695 216.3 615.49 216.417 615.326 216.575C615.168 216.728 615.051 216.921 614.975 217.155C614.904 217.39 614.872 217.662 614.878 217.973L614.342 217.621C614.342 216.982 614.403 216.402 614.526 215.881C614.655 215.354 614.837 214.899 615.071 214.519C615.306 214.132 615.59 213.836 615.924 213.631C616.258 213.42 616.633 213.314 617.049 213.314C617.195 213.314 617.339 213.323 617.479 213.341C617.626 213.358 617.755 213.385 617.866 213.42ZM621.795 215.521V223H618.833V213.49H621.61L621.795 215.521ZM621.443 217.92L620.749 217.938C620.749 217.211 620.837 216.563 621.013 215.995C621.188 215.421 621.438 214.935 621.76 214.536C622.082 214.138 622.466 213.836 622.911 213.631C623.362 213.42 623.863 213.314 624.414 213.314C624.854 213.314 625.255 213.379 625.618 213.508C625.987 213.637 626.304 213.845 626.567 214.132C626.837 214.419 627.042 214.8 627.183 215.274C627.329 215.743 627.402 216.323 627.402 217.015V223H624.423V217.006C624.423 216.625 624.37 216.335 624.265 216.136C624.159 215.931 624.007 215.79 623.808 215.714C623.608 215.638 623.365 215.6 623.078 215.6C622.773 215.6 622.516 215.658 622.305 215.775C622.094 215.893 621.924 216.057 621.795 216.268C621.672 216.473 621.581 216.716 621.522 216.997C621.47 217.278 621.443 217.586 621.443 217.92ZM632.175 213.49V223H629.204V213.49H632.175ZM629.028 211.038C629.028 210.616 629.181 210.271 629.485 210.001C629.79 209.731 630.186 209.597 630.672 209.597C631.158 209.597 631.554 209.731 631.858 210.001C632.163 210.271 632.315 210.616 632.315 211.038C632.315 211.46 632.163 211.806 631.858 212.075C631.554 212.345 631.158 212.479 630.672 212.479C630.186 212.479 629.79 212.345 629.485 212.075C629.181 211.806 629.028 211.46 629.028 211.038ZM636.912 215.521V223H633.95V213.49H636.728L636.912 215.521ZM636.561 217.92L635.866 217.938C635.866 217.211 635.954 216.563 636.13 215.995C636.306 215.421 636.555 214.935 636.877 214.536C637.199 214.138 637.583 213.836 638.028 213.631C638.479 213.42 638.98 213.314 639.531 213.314C639.971 213.314 640.372 213.379 640.735 213.508C641.104 213.637 641.421 213.845 641.685 214.132C641.954 214.419 642.159 214.8 642.3 215.274C642.446 215.743 642.52 216.323 642.52 217.015V223H639.54V217.006C639.54 216.625 639.487 216.335 639.382 216.136C639.276 215.931 639.124 215.79 638.925 215.714C638.726 215.638 638.482 215.6 638.195 215.6C637.891 215.6 637.633 215.658 637.422 215.775C637.211 215.893 637.041 216.057 636.912 216.268C636.789 216.473 636.698 216.716 636.64 216.997C636.587 217.278 636.561 217.586 636.561 217.92ZM650.14 213.49H652.829V222.631C652.829 223.51 652.627 224.254 652.223 224.863C651.818 225.479 651.253 225.944 650.526 226.261C649.806 226.583 648.962 226.744 647.995 226.744C647.567 226.744 647.131 226.688 646.686 226.577C646.24 226.472 645.824 226.313 645.438 226.103C645.051 225.892 644.726 225.631 644.462 225.32L645.701 223.58C645.941 223.85 646.243 224.078 646.606 224.266C646.97 224.459 647.397 224.556 647.89 224.556C648.317 224.556 648.675 224.479 648.962 224.327C649.255 224.175 649.478 223.952 649.63 223.659C649.782 223.372 649.858 223.023 649.858 222.613V215.74L650.14 213.49ZM643.82 218.359V218.175C643.82 217.454 643.908 216.798 644.084 216.206C644.266 215.608 644.523 215.096 644.857 214.668C645.197 214.234 645.607 213.9 646.088 213.666C646.568 213.432 647.11 213.314 647.714 213.314C648.364 213.314 648.897 213.44 649.313 213.692C649.735 213.938 650.072 214.284 650.324 214.729C650.582 215.175 650.781 215.696 650.922 216.294C651.068 216.886 651.191 217.524 651.291 218.21V218.43C651.191 219.074 651.054 219.684 650.878 220.258C650.708 220.826 650.485 221.33 650.21 221.77C649.935 222.209 649.589 222.555 649.173 222.807C648.763 223.053 648.271 223.176 647.696 223.176C647.099 223.176 646.56 223.056 646.079 222.815C645.604 222.575 645.197 222.238 644.857 221.805C644.523 221.371 644.266 220.861 644.084 220.275C643.908 219.689 643.82 219.051 643.82 218.359ZM646.782 218.175V218.359C646.782 218.717 646.814 219.048 646.879 219.353C646.949 219.657 647.055 219.927 647.195 220.161C647.336 220.39 647.509 220.568 647.714 220.697C647.925 220.826 648.171 220.891 648.452 220.891C648.88 220.891 649.226 220.8 649.489 220.618C649.753 220.437 649.943 220.179 650.061 219.845C650.178 219.511 650.228 219.118 650.21 218.667V217.973C650.222 217.586 650.195 217.246 650.131 216.953C650.066 216.654 649.964 216.405 649.823 216.206C649.688 216.007 649.507 215.857 649.278 215.758C649.056 215.652 648.786 215.6 648.47 215.6C648.194 215.6 647.951 215.664 647.74 215.793C647.529 215.922 647.354 216.104 647.213 216.338C647.072 216.566 646.964 216.839 646.888 217.155C646.817 217.466 646.782 217.806 646.782 218.175Z" fill="white"/>
<rect x="696" y="196" width="187" height="41" rx="3" fill="#424242"/>
<rect x="696" y="196" width="187" height="41" rx="3" stroke="#424242" stroke-width="4"/>
<path d="M722.668 210.203V223H719.592V210.203H722.668ZM727.687 215.503V223H724.725V213.49H727.502L727.687 215.503ZM727.326 217.92L726.649 217.938C726.649 217.27 726.729 216.654 726.887 216.092C727.045 215.529 727.279 215.04 727.59 214.624C727.9 214.208 728.281 213.886 728.732 213.657C729.189 213.429 729.717 213.314 730.314 213.314C730.73 213.314 731.108 213.379 731.448 213.508C731.788 213.631 732.081 213.827 732.327 214.097C732.573 214.36 732.761 214.706 732.89 215.134C733.024 215.556 733.092 216.062 733.092 216.654V223H730.13V217.032C730.13 216.628 730.083 216.323 729.989 216.118C729.901 215.913 729.772 215.775 729.603 215.705C729.433 215.635 729.225 215.6 728.979 215.6C728.721 215.6 728.489 215.658 728.284 215.775C728.079 215.893 727.903 216.057 727.757 216.268C727.616 216.473 727.508 216.716 727.432 216.997C727.361 217.278 727.326 217.586 727.326 217.92ZM732.758 217.92L731.932 217.938C731.932 217.27 732.005 216.654 732.151 216.092C732.304 215.529 732.529 215.04 732.828 214.624C733.133 214.208 733.511 213.886 733.962 213.657C734.413 213.429 734.938 213.314 735.535 213.314C735.969 213.314 736.367 213.379 736.73 213.508C737.094 213.637 737.407 213.845 737.671 214.132C737.935 214.419 738.14 214.8 738.286 215.274C738.433 215.743 738.506 216.323 738.506 217.015V223H735.535V217.015C735.535 216.622 735.488 216.326 735.395 216.127C735.307 215.922 735.178 215.784 735.008 215.714C734.838 215.638 734.636 215.6 734.401 215.6C734.12 215.6 733.877 215.658 733.672 215.775C733.467 215.893 733.294 216.057 733.153 216.268C733.019 216.473 732.919 216.716 732.854 216.997C732.79 217.278 732.758 217.586 732.758 217.92ZM745.142 220.609V216.689C745.142 216.42 745.104 216.188 745.027 215.995C744.951 215.802 744.831 215.652 744.667 215.547C744.503 215.436 744.283 215.38 744.008 215.38C743.785 215.38 743.595 215.418 743.437 215.494C743.278 215.57 743.158 215.685 743.076 215.837C742.994 215.989 742.953 216.183 742.953 216.417H739.991C739.991 215.978 740.088 215.57 740.281 215.195C740.48 214.814 740.762 214.483 741.125 214.202C741.494 213.921 741.934 213.704 742.443 213.552C742.959 213.394 743.533 213.314 744.166 213.314C744.922 213.314 745.596 213.44 746.188 213.692C746.785 213.944 747.257 214.322 747.603 214.826C747.948 215.324 748.121 215.951 748.121 216.707V220.601C748.121 221.222 748.156 221.693 748.227 222.016C748.297 222.332 748.396 222.61 748.525 222.851V223H745.555C745.414 222.707 745.309 222.35 745.238 221.928C745.174 221.5 745.142 221.061 745.142 220.609ZM745.502 217.19L745.52 218.772H744.21C743.935 218.772 743.7 218.811 743.507 218.887C743.319 218.963 743.167 219.068 743.05 219.203C742.938 219.332 742.856 219.479 742.804 219.643C742.757 219.807 742.733 219.979 742.733 220.161C742.733 220.337 742.774 220.495 742.856 220.636C742.944 220.771 743.062 220.876 743.208 220.952C743.354 221.028 743.519 221.066 743.7 221.066C744.028 221.066 744.307 221.005 744.535 220.882C744.77 220.753 744.948 220.598 745.071 220.416C745.194 220.234 745.256 220.064 745.256 219.906L745.906 221.119C745.789 221.354 745.654 221.591 745.502 221.831C745.355 222.071 745.171 222.294 744.948 222.499C744.731 222.698 744.465 222.862 744.148 222.991C743.832 223.114 743.448 223.176 742.997 223.176C742.411 223.176 741.872 223.056 741.38 222.815C740.894 222.575 740.504 222.241 740.211 221.813C739.918 221.38 739.771 220.882 739.771 220.319C739.771 219.827 739.859 219.388 740.035 219.001C740.217 218.614 740.489 218.286 740.853 218.017C741.216 217.747 741.679 217.542 742.241 217.401C742.804 217.261 743.466 217.19 744.228 217.19H745.502ZM755.741 213.49H758.431V222.631C758.431 223.51 758.229 224.254 757.824 224.863C757.42 225.479 756.854 225.944 756.128 226.261C755.407 226.583 754.563 226.744 753.597 226.744C753.169 226.744 752.732 226.688 752.287 226.577C751.842 226.472 751.426 226.313 751.039 226.103C750.652 225.892 750.327 225.631 750.063 225.32L751.303 223.58C751.543 223.85 751.845 224.078 752.208 224.266C752.571 224.459 752.999 224.556 753.491 224.556C753.919 224.556 754.276 224.479 754.563 224.327C754.856 224.175 755.079 223.952 755.231 223.659C755.384 223.372 755.46 223.023 755.46 222.613V215.74L755.741 213.49ZM749.422 218.359V218.175C749.422 217.454 749.51 216.798 749.686 216.206C749.867 215.608 750.125 215.096 750.459 214.668C750.799 214.234 751.209 213.9 751.689 213.666C752.17 213.432 752.712 213.314 753.315 213.314C753.966 213.314 754.499 213.44 754.915 213.692C755.337 213.938 755.674 214.284 755.926 214.729C756.184 215.175 756.383 215.696 756.523 216.294C756.67 216.886 756.793 217.524 756.893 218.21V218.43C756.793 219.074 756.655 219.684 756.479 220.258C756.31 220.826 756.087 221.33 755.812 221.77C755.536 222.209 755.19 222.555 754.774 222.807C754.364 223.053 753.872 223.176 753.298 223.176C752.7 223.176 752.161 223.056 751.681 222.815C751.206 222.575 750.799 222.238 750.459 221.805C750.125 221.371 749.867 220.861 749.686 220.275C749.51 219.689 749.422 219.051 749.422 218.359ZM752.384 218.175V218.359C752.384 218.717 752.416 219.048 752.48 219.353C752.551 219.657 752.656 219.927 752.797 220.161C752.938 220.39 753.11 220.568 753.315 220.697C753.526 220.826 753.772 220.891 754.054 220.891C754.481 220.891 754.827 220.8 755.091 220.618C755.354 220.437 755.545 220.179 755.662 219.845C755.779 219.511 755.829 219.118 755.812 218.667V217.973C755.823 217.586 755.797 217.246 755.732 216.953C755.668 216.654 755.565 216.405 755.425 216.206C755.29 216.007 755.108 215.857 754.88 215.758C754.657 215.652 754.388 215.6 754.071 215.6C753.796 215.6 753.553 215.664 753.342 215.793C753.131 215.922 752.955 216.104 752.814 216.338C752.674 216.566 752.565 216.839 752.489 217.155C752.419 217.466 752.384 217.806 752.384 218.175ZM764.741 223.176C763.968 223.176 763.276 223.056 762.667 222.815C762.058 222.569 761.542 222.232 761.12 221.805C760.704 221.377 760.385 220.885 760.162 220.328C759.945 219.771 759.837 219.183 759.837 218.562V218.228C759.837 217.53 759.934 216.886 760.127 216.294C760.32 215.696 760.607 215.175 760.988 214.729C761.369 214.284 761.847 213.938 762.421 213.692C762.995 213.44 763.663 213.314 764.425 213.314C765.099 213.314 765.702 213.423 766.235 213.64C766.769 213.856 767.22 214.167 767.589 214.571C767.964 214.976 768.248 215.465 768.441 216.039C768.641 216.613 768.74 217.258 768.74 217.973V219.177H760.971V217.322H765.849V217.094C765.854 216.777 765.799 216.508 765.682 216.285C765.57 216.062 765.406 215.893 765.189 215.775C764.973 215.658 764.709 215.6 764.398 215.6C764.076 215.6 763.81 215.67 763.599 215.811C763.394 215.951 763.232 216.145 763.115 216.391C763.004 216.631 762.925 216.909 762.878 217.226C762.831 217.542 762.808 217.876 762.808 218.228V218.562C762.808 218.913 762.854 219.232 762.948 219.52C763.048 219.807 763.188 220.053 763.37 220.258C763.558 220.457 763.78 220.612 764.038 220.724C764.302 220.835 764.601 220.891 764.935 220.891C765.339 220.891 765.737 220.814 766.13 220.662C766.522 220.51 766.859 220.258 767.141 219.906L768.485 221.506C768.292 221.781 768.017 222.048 767.659 222.306C767.308 222.563 766.886 222.774 766.394 222.938C765.901 223.097 765.351 223.176 764.741 223.176ZM775.191 218.658H772.01V216.276H775.191C775.625 216.276 775.977 216.203 776.246 216.057C776.516 215.91 776.712 215.708 776.835 215.45C776.964 215.187 777.028 214.891 777.028 214.562C777.028 214.211 776.964 213.886 776.835 213.587C776.712 213.288 776.516 213.048 776.246 212.866C775.977 212.679 775.625 212.585 775.191 212.585H773.17V223H770.085V210.203H775.191C776.217 210.203 777.099 210.391 777.837 210.766C778.581 211.141 779.152 211.656 779.551 212.312C779.949 212.963 780.148 213.707 780.148 214.545C780.148 215.371 779.949 216.092 779.551 216.707C779.152 217.322 778.581 217.803 777.837 218.148C777.099 218.488 776.217 218.658 775.191 218.658ZM784.657 215.846V223H781.695V213.49H784.464L784.657 215.846ZM787.47 213.42L787.417 216.171C787.3 216.159 787.142 216.145 786.942 216.127C786.743 216.109 786.576 216.101 786.441 216.101C786.096 216.101 785.797 216.142 785.545 216.224C785.299 216.3 785.094 216.417 784.93 216.575C784.771 216.728 784.654 216.921 784.578 217.155C784.508 217.39 784.476 217.662 784.481 217.973L783.945 217.621C783.945 216.982 784.007 216.402 784.13 215.881C784.259 215.354 784.44 214.899 784.675 214.519C784.909 214.132 785.193 213.836 785.527 213.631C785.861 213.42 786.236 213.314 786.652 213.314C786.799 213.314 786.942 213.323 787.083 213.341C787.229 213.358 787.358 213.385 787.47 213.42ZM787.804 218.342V218.157C787.804 217.46 787.903 216.818 788.103 216.232C788.302 215.641 788.595 215.128 788.981 214.694C789.368 214.261 789.846 213.924 790.414 213.684C790.982 213.438 791.639 213.314 792.383 213.314C793.133 213.314 793.792 213.438 794.36 213.684C794.935 213.924 795.415 214.261 795.802 214.694C796.188 215.128 796.481 215.641 796.681 216.232C796.88 216.818 796.979 217.46 796.979 218.157V218.342C796.979 219.033 796.88 219.675 796.681 220.267C796.481 220.853 796.188 221.365 795.802 221.805C795.415 222.238 794.938 222.575 794.369 222.815C793.801 223.056 793.145 223.176 792.4 223.176C791.656 223.176 790.997 223.056 790.423 222.815C789.849 222.575 789.368 222.238 788.981 221.805C788.595 221.365 788.302 220.853 788.103 220.267C787.903 219.675 787.804 219.033 787.804 218.342ZM790.766 218.157V218.342C790.766 218.699 790.792 219.033 790.845 219.344C790.897 219.654 790.985 219.927 791.108 220.161C791.231 220.39 791.398 220.568 791.609 220.697C791.82 220.826 792.084 220.891 792.4 220.891C792.711 220.891 792.969 220.826 793.174 220.697C793.385 220.568 793.552 220.39 793.675 220.161C793.798 219.927 793.886 219.654 793.938 219.344C793.991 219.033 794.018 218.699 794.018 218.342V218.157C794.018 217.812 793.991 217.486 793.938 217.182C793.886 216.871 793.798 216.599 793.675 216.364C793.552 216.124 793.385 215.937 793.174 215.802C792.963 215.667 792.699 215.6 792.383 215.6C792.072 215.6 791.812 215.667 791.601 215.802C791.396 215.937 791.231 216.124 791.108 216.364C790.985 216.599 790.897 216.871 790.845 217.182C790.792 217.486 790.766 217.812 790.766 218.157ZM802.314 220.891C802.59 220.891 802.824 220.841 803.018 220.741C803.217 220.636 803.366 220.489 803.466 220.302C803.571 220.108 803.621 219.877 803.615 219.607H806.401C806.407 220.322 806.231 220.949 805.874 221.488C805.522 222.021 805.042 222.438 804.433 222.736C803.829 223.029 803.146 223.176 802.385 223.176C801.641 223.176 800.99 223.056 800.434 222.815C799.877 222.569 799.411 222.229 799.036 221.796C798.667 221.356 798.389 220.844 798.201 220.258C798.02 219.672 797.929 219.036 797.929 218.351V218.148C797.929 217.463 798.02 216.827 798.201 216.241C798.389 215.649 798.667 215.137 799.036 214.703C799.411 214.264 799.874 213.924 800.425 213.684C800.981 213.438 801.629 213.314 802.367 213.314C803.158 213.314 803.855 213.464 804.459 213.763C805.068 214.062 805.546 214.495 805.892 215.063C806.237 215.632 806.407 216.32 806.401 217.129H803.615C803.621 216.842 803.577 216.584 803.483 216.355C803.39 216.127 803.243 215.945 803.044 215.811C802.851 215.67 802.602 215.6 802.297 215.6C801.992 215.6 801.746 215.667 801.559 215.802C801.371 215.937 801.228 216.124 801.128 216.364C801.034 216.599 800.97 216.868 800.935 217.173C800.905 217.478 800.891 217.803 800.891 218.148V218.351C800.891 218.702 800.905 219.033 800.935 219.344C800.97 219.648 801.037 219.918 801.137 220.152C801.236 220.381 801.38 220.562 801.567 220.697C801.755 220.826 802.004 220.891 802.314 220.891ZM812.272 223.176C811.499 223.176 810.808 223.056 810.198 222.815C809.589 222.569 809.073 222.232 808.651 221.805C808.235 221.377 807.916 220.885 807.693 220.328C807.477 219.771 807.368 219.183 807.368 218.562V218.228C807.368 217.53 807.465 216.886 807.658 216.294C807.852 215.696 808.139 215.175 808.52 214.729C808.9 214.284 809.378 213.938 809.952 213.692C810.526 213.44 811.194 213.314 811.956 213.314C812.63 213.314 813.233 213.423 813.767 213.64C814.3 213.856 814.751 214.167 815.12 214.571C815.495 214.976 815.779 215.465 815.973 216.039C816.172 216.613 816.271 217.258 816.271 217.973V219.177H808.502V217.322H813.38V217.094C813.386 216.777 813.33 216.508 813.213 216.285C813.102 216.062 812.938 215.893 812.721 215.775C812.504 215.658 812.24 215.6 811.93 215.6C811.607 215.6 811.341 215.67 811.13 215.811C810.925 215.951 810.764 216.145 810.646 216.391C810.535 216.631 810.456 216.909 810.409 217.226C810.362 217.542 810.339 217.876 810.339 218.228V218.562C810.339 218.913 810.386 219.232 810.479 219.52C810.579 219.807 810.72 220.053 810.901 220.258C811.089 220.457 811.312 220.612 811.569 220.724C811.833 220.835 812.132 220.891 812.466 220.891C812.87 220.891 813.269 220.814 813.661 220.662C814.054 220.51 814.391 220.258 814.672 219.906L816.017 221.506C815.823 221.781 815.548 222.048 815.19 222.306C814.839 222.563 814.417 222.774 813.925 222.938C813.433 223.097 812.882 223.176 812.272 223.176ZM822.459 220.328C822.459 220.164 822.403 220.023 822.292 219.906C822.187 219.783 821.999 219.672 821.729 219.572C821.46 219.467 821.082 219.361 820.596 219.256C820.133 219.156 819.696 219.024 819.286 218.86C818.882 218.696 818.527 218.497 818.223 218.263C817.918 218.028 817.678 217.75 817.502 217.428C817.332 217.105 817.247 216.736 817.247 216.32C817.247 215.916 817.332 215.535 817.502 215.178C817.678 214.814 817.933 214.495 818.267 214.22C818.606 213.938 819.02 213.719 819.506 213.561C819.992 213.396 820.546 213.314 821.167 213.314C822.022 213.314 822.761 213.446 823.382 213.71C824.003 213.968 824.48 214.331 824.814 214.8C825.154 215.263 825.324 215.799 825.324 216.408H822.362C822.362 216.168 822.321 215.963 822.239 215.793C822.163 215.623 822.037 215.494 821.861 215.406C821.686 215.312 821.451 215.266 821.158 215.266C820.953 215.266 820.766 215.304 820.596 215.38C820.432 215.456 820.3 215.562 820.2 215.696C820.101 215.831 820.051 215.989 820.051 216.171C820.051 216.3 820.08 216.417 820.139 216.522C820.203 216.622 820.3 216.716 820.429 216.804C820.558 216.886 820.722 216.962 820.921 217.032C821.12 217.097 821.36 217.155 821.642 217.208C822.28 217.325 822.878 217.492 823.435 217.709C823.991 217.926 824.442 218.233 824.788 218.632C825.14 219.03 825.315 219.566 825.315 220.24C825.315 220.662 825.219 221.052 825.025 221.409C824.832 221.761 824.554 222.071 824.19 222.341C823.827 222.604 823.391 222.81 822.881 222.956C822.371 223.103 821.797 223.176 821.158 223.176C820.25 223.176 819.482 223.015 818.855 222.692C818.229 222.364 817.754 221.954 817.432 221.462C817.115 220.964 816.957 220.46 816.957 219.95H819.717C819.729 220.243 819.799 220.483 819.928 220.671C820.062 220.858 820.241 220.996 820.464 221.084C820.687 221.172 820.944 221.216 821.237 221.216C821.507 221.216 821.729 221.178 821.905 221.102C822.087 221.025 822.225 220.923 822.318 220.794C822.412 220.659 822.459 220.504 822.459 220.328ZM831.688 220.328C831.688 220.164 831.632 220.023 831.521 219.906C831.415 219.783 831.228 219.672 830.958 219.572C830.688 219.467 830.311 219.361 829.824 219.256C829.361 219.156 828.925 219.024 828.515 218.86C828.11 218.696 827.756 218.497 827.451 218.263C827.146 218.028 826.906 217.75 826.73 217.428C826.561 217.105 826.476 216.736 826.476 216.32C826.476 215.916 826.561 215.535 826.73 215.178C826.906 214.814 827.161 214.495 827.495 214.22C827.835 213.938 828.248 213.719 828.734 213.561C829.221 213.396 829.774 213.314 830.396 213.314C831.251 213.314 831.989 213.446 832.61 213.71C833.231 213.968 833.709 214.331 834.043 214.8C834.383 215.263 834.553 215.799 834.553 216.408H831.591C831.591 216.168 831.55 215.963 831.468 215.793C831.392 215.623 831.266 215.494 831.09 215.406C830.914 215.312 830.68 215.266 830.387 215.266C830.182 215.266 829.994 215.304 829.824 215.38C829.66 215.456 829.528 215.562 829.429 215.696C829.329 215.831 829.279 215.989 829.279 216.171C829.279 216.3 829.309 216.417 829.367 216.522C829.432 216.622 829.528 216.716 829.657 216.804C829.786 216.886 829.95 216.962 830.149 217.032C830.349 217.097 830.589 217.155 830.87 217.208C831.509 217.325 832.106 217.492 832.663 217.709C833.22 217.926 833.671 218.233 834.017 218.632C834.368 219.03 834.544 219.566 834.544 220.24C834.544 220.662 834.447 221.052 834.254 221.409C834.061 221.761 833.782 222.071 833.419 222.341C833.056 222.604 832.619 222.81 832.109 222.956C831.6 223.103 831.025 223.176 830.387 223.176C829.479 223.176 828.711 223.015 828.084 222.692C827.457 222.364 826.982 221.954 826.66 221.462C826.344 220.964 826.186 220.46 826.186 219.95H828.945C828.957 220.243 829.027 220.483 829.156 220.671C829.291 220.858 829.47 220.996 829.692 221.084C829.915 221.172 830.173 221.216 830.466 221.216C830.735 221.216 830.958 221.178 831.134 221.102C831.315 221.025 831.453 220.923 831.547 220.794C831.641 220.659 831.688 220.504 831.688 220.328ZM839.062 213.49V223H836.091V213.49H839.062ZM835.915 211.038C835.915 210.616 836.067 210.271 836.372 210.001C836.677 209.731 837.072 209.597 837.559 209.597C838.045 209.597 838.44 209.731 838.745 210.001C839.05 210.271 839.202 210.616 839.202 211.038C839.202 211.46 839.05 211.806 838.745 212.075C838.44 212.345 838.045 212.479 837.559 212.479C837.072 212.479 836.677 212.345 836.372 212.075C836.067 211.806 835.915 211.46 835.915 211.038ZM843.799 215.521V223H840.837V213.49H843.614L843.799 215.521ZM843.447 217.92L842.753 217.938C842.753 217.211 842.841 216.563 843.017 215.995C843.192 215.421 843.441 214.935 843.764 214.536C844.086 214.138 844.47 213.836 844.915 213.631C845.366 213.42 845.867 213.314 846.418 213.314C846.857 213.314 847.259 213.379 847.622 213.508C847.991 213.637 848.308 213.845 848.571 214.132C848.841 214.419 849.046 214.8 849.187 215.274C849.333 215.743 849.406 216.323 849.406 217.015V223H846.427V217.006C846.427 216.625 846.374 216.335 846.269 216.136C846.163 215.931 846.011 215.79 845.812 215.714C845.612 215.638 845.369 215.6 845.082 215.6C844.777 215.6 844.52 215.658 844.309 215.775C844.098 215.893 843.928 216.057 843.799 216.268C843.676 216.473 843.585 216.716 843.526 216.997C843.474 217.278 843.447 217.586 843.447 217.92ZM857.026 213.49H859.716V222.631C859.716 223.51 859.514 224.254 859.109 224.863C858.705 225.479 858.14 225.944 857.413 226.261C856.692 226.583 855.849 226.744 854.882 226.744C854.454 226.744 854.018 226.688 853.572 226.577C853.127 226.472 852.711 226.313 852.324 226.103C851.938 225.892 851.612 225.631 851.349 225.32L852.588 223.58C852.828 223.85 853.13 224.078 853.493 224.266C853.856 224.459 854.284 224.556 854.776 224.556C855.204 224.556 855.562 224.479 855.849 224.327C856.142 224.175 856.364 223.952 856.517 223.659C856.669 223.372 856.745 223.023 856.745 222.613V215.74L857.026 213.49ZM850.707 218.359V218.175C850.707 217.454 850.795 216.798 850.971 216.206C851.152 215.608 851.41 215.096 851.744 214.668C852.084 214.234 852.494 213.9 852.975 213.666C853.455 213.432 853.997 213.314 854.601 213.314C855.251 213.314 855.784 213.44 856.2 213.692C856.622 213.938 856.959 214.284 857.211 214.729C857.469 215.175 857.668 215.696 857.809 216.294C857.955 216.886 858.078 217.524 858.178 218.21V218.43C858.078 219.074 857.94 219.684 857.765 220.258C857.595 220.826 857.372 221.33 857.097 221.77C856.821 222.209 856.476 222.555 856.06 222.807C855.649 223.053 855.157 223.176 854.583 223.176C853.985 223.176 853.446 223.056 852.966 222.815C852.491 222.575 852.084 222.238 851.744 221.805C851.41 221.371 851.152 220.861 850.971 220.275C850.795 219.689 850.707 219.051 850.707 218.359ZM853.669 218.175V218.359C853.669 218.717 853.701 219.048 853.766 219.353C853.836 219.657 853.941 219.927 854.082 220.161C854.223 220.39 854.396 220.568 854.601 220.697C854.812 220.826 855.058 220.891 855.339 220.891C855.767 220.891 856.112 220.8 856.376 220.618C856.64 220.437 856.83 220.179 856.947 219.845C857.064 219.511 857.114 219.118 857.097 218.667V217.973C857.108 217.586 857.082 217.246 857.018 216.953C856.953 216.654 856.851 216.405 856.71 216.206C856.575 216.007 856.394 215.857 856.165 215.758C855.942 215.652 855.673 215.6 855.356 215.6C855.081 215.6 854.838 215.664 854.627 215.793C854.416 215.922 854.24 216.104 854.1 216.338C853.959 216.566 853.851 216.839 853.774 217.155C853.704 217.466 853.669 217.806 853.669 218.175Z" fill="white"/>
</svg>
